<?xml version="1.0" encoding="UTF-8" standalone="no"?>
<svg width="150px" height="150px" viewBox="0 0 150 150" version="1.1" xmlns="http://www.w3.org/2000/svg" xmlns:xlink="http://www.w3.org/1999/xlink">
    <!-- Generator: Sketch 3.8.3 (29802) - http://www.bohemiancoding.com/sketch -->
    <title>A4</title>
    <desc>Created with Sketch.</desc>
    <defs></defs>
    <g id="Page-1" stroke="none" stroke-width="1" fill="none" fill-rule="evenodd">
        <g id="A4" fill="#1A1918">
            <g id="Group" transform="translate(5.000000, 43.000000)">
                <path d="M22.7562839,8.19569937 C22.9334029,8.4406263 22.8179541,8.91732777 22.8501044,9.39549061 C22.8723173,9.72517745 23.0579123,10.0124843 23.0564509,10.2202923 C23.0546973,10.4693111 22.7559916,10.6911482 22.7939875,10.8951566 C22.8319833,11.100334 23.2964092,11.0988727 23.33762,11.2888518 C23.3718163,11.448142 23.1569937,11.5346555 23.1315658,11.6822547 C23.1014614,11.8546973 23.2134029,12.2226722 23.2437996,12.4883507 C23.2768267,12.7762422 23.2829645,13.082547 23.2999165,13.3505637 C23.33762,13.9330689 23.4387474,14.5570772 23.393737,15.0752818 C23.3718163,15.3281002 23.2063883,15.6022547 23.2250939,15.806263 C23.2353236,15.9199582 23.3650939,16.0152401 23.393737,16.1622547 C23.4565762,16.4852192 23.4174113,16.9335699 23.5249687,17.3620459 C23.6161587,17.7244676 23.8713152,18.0477244 23.7874322,18.3744885 C23.7573278,18.4913987 23.5249687,18.6395825 23.5813779,18.8430063 C23.6152818,18.965762 23.8526096,19.0128184 23.9186639,19.1054697 C24.2021712,19.5026722 23.8707307,20.2716493 24.199833,20.5864301 C24.1165344,20.7530271 23.9122338,20.7986221 23.7500209,20.8860125 C23.7842171,21.0876827 23.98881,21.2411273 24.0686013,21.4296451 C24.2673486,21.8993319 24.3562004,22.6995825 24.4810021,23.2665971 C24.5365344,23.5191232 24.6066806,23.7959081 24.5374113,23.9978706 C24.3842589,24.4415449 23.6076827,24.8200418 23.1499791,24.9913152 C22.8653027,25.0979958 22.5467223,25.1687265 22.1755324,25.1973695 C21.819833,25.2251357 21.406263,25.285929 21.1069729,25.122547 C21.020167,24.8980793 21.2557411,24.7665553 21.2943215,24.5789144 C21.3647599,24.2378288 21.2411273,23.7821712 21.3130271,23.3791232 C21.3507307,23.1683925 21.445428,23.0473904 21.388142,22.7980793 C21.3551148,22.6548643 21.2186221,22.5364927 21.2007933,22.4043841 C21.1741962,22.2088518 21.3133194,21.9656785 21.3317328,21.7672234 C21.3708977,21.3481002 21.3317328,20.9070564 21.3317328,20.4926096 C21.3317328,19.74 21.3738205,18.9578706 21.1817954,18.3744885 C21.0900209,18.0956576 20.8670146,17.8472234 20.8445094,17.4932777 C20.8015449,16.8172443 20.9266388,16.1628392 20.863215,15.5437996 C20.8284342,15.2032985 20.6501461,14.880334 20.6007516,14.5129436 C20.5487265,14.1265553 20.5043006,13.7033403 20.5256367,13.3131524 C20.5420042,13.0220459 20.6516075,12.6458873 20.5820459,12.3948225 C20.5338205,12.2206263 20.3415031,12.1674322 20.3195825,11.9637161 C20.2950313,11.7348643 20.4587056,11.616785 20.5256367,11.4387891 C20.4478914,11.3978706 20.3321503,11.3946555 20.3008768,11.3075574 C20.2877244,11.1000418 20.4201253,10.914739 20.3008768,10.7639248 C20.0778706,10.9001253 20.0086013,11.1833403 19.9258873,11.4200835 C19.8402505,11.6658873 19.7832568,11.9365344 19.6821294,12.188476 C19.493904,12.6575783 19.1732777,13.102714 19.0449687,13.5943215 C18.9520251,13.9500209 18.8584969,14.3212109 18.7073904,14.6815866 C18.5700209,15.0098121 18.4262213,15.388309 18.2388727,15.63762 C18.0635073,15.8708559 17.8188727,16.0108559 17.7326514,16.2747808 C17.6233403,16.6108977 17.6709812,16.9025887 17.4891858,17.1559916 C17.4202088,17.251858 17.2924843,17.3170355 17.1706054,17.3807516 C17.0846764,17.6259708 17.074739,18.0094363 16.9829645,18.3180793 C16.9119415,18.5571608 16.7079332,18.7778288 16.551858,19.0116493 C16.1283507,19.6467641 15.8761169,20.5805846 15.4832985,21.2610021 C15.3482672,21.4951148 15.1632568,21.6690188 15.0147808,21.8984551 C14.7271816,22.342714 14.5889353,22.8807933 14.3960334,23.4916493 C14.3133194,23.7546973 14.1981628,24.174405 14.0213361,24.2226305 C13.8582463,24.2670564 13.6533612,24.1609603 13.4964092,24.1478079 C13.3008768,24.1314405 13.0240919,24.2346138 12.8779541,24.1665136 C12.7920251,24.1264718 12.7981628,24.025929 12.7277244,23.9040501 C12.6327349,23.7392067 12.4924426,23.5506889 12.3717328,23.3230063 C12.2653445,23.1222129 12.1437578,22.8927766 12.0344468,22.7419624 C11.8929854,22.5470146 11.6916075,22.4526096 11.6407516,22.2544468 C11.6004175,22.0974948 11.6863466,21.8134029 11.6033403,21.6921086 C11.488476,21.6044259 11.3288935,21.6584969 11.1532359,21.6546973 C10.9351983,21.3077662 10.9866388,20.8509395 10.8533612,20.4736117 C10.7221294,20.1021294 10.3804593,19.8756159 10.2349061,19.5552818 C10.2594572,19.1808768 10.0902296,18.9999582 9.76638831,18.974238 C9.33732777,17.525428 8.41052192,16.3180376 7.76050104,14.9627557 C7.66784969,14.7695616 7.56263048,14.4705637 7.51674322,14.194071 C7.47699374,13.9546973 7.50475992,13.4353236 7.40421712,13.3131524 C7.30221294,13.1892276 7.17185804,13.279833 6.97311065,13.2193319 C6.74338205,13.1497704 6.57736952,12.7154489 6.46688935,12.4696451 C6.06822547,11.5811273 5.674238,10.763048 5.2673904,9.90141962 C5.2577453,10.4120251 5.31181628,11.2131524 5.34221294,11.8698956 C5.35331942,12.1069311 5.40534447,12.3506889 5.36121086,12.5070564 C5.3211691,12.6491023 5.14668058,12.6952818 5.13615866,12.825929 C5.12008351,13.0264301 5.44743215,13.2801253 5.47344468,13.5382046 C5.51728601,13.9684342 5.45503132,14.5690605 5.39862213,15.1501044 C5.37436326,15.3997077 5.35448852,15.6668476 5.32350731,15.9187891 C5.28580376,16.2265553 5.29544885,16.6491858 5.13615866,16.7997077 C5.07887265,16.854071 5.0388309,16.84238 5.02363257,16.9122338 C4.99995825,17.0200835 5.13411273,17.1527766 5.1548643,17.2685177 C5.27908142,17.9550731 5.06016701,18.9683925 5.00492693,19.780334 C4.99469729,19.9323173 5.01048017,20.1035908 5.02363257,20.2675574 C5.03590814,20.416618 5.0914405,20.6045511 5.08004175,20.6986639 C5.05665971,20.8903967 4.77227557,21.0368267 4.7611691,21.2235908 C4.74538622,21.4968685 5.18730689,21.8639666 5.06104384,22.2357411 C5.00901879,22.3894781 4.50250522,22.5268476 4.53640919,22.7419624 C4.57177453,22.9667223 5.11453027,22.8559499 5.22997912,23.0044259 C5.28580376,23.2052192 5.12885177,23.4089353 5.06104384,23.6041754 C4.98300626,23.8303967 4.9514405,24.0212526 4.81757829,24.1852192 C4.47356994,24.6058038 3.43686848,25.068476 2.73686848,25.122547 C2.35018789,25.1523591 1.80830898,25.0670146 1.78083507,24.766263 C1.75511482,24.4859708 2.15962422,24.179666 2.38087683,24.0165762 C2.48668058,23.9385386 3.14751566,23.628142 3.1302714,23.4168267 C3.12325678,23.3285595 2.86283925,23.1549478 2.77427975,23.0605428 C2.66701461,22.9459708 2.50421712,22.7974948 2.49311065,22.648142 C2.47849687,22.4546555 2.74242171,22.1311065 2.77427975,21.8797495 C2.83478079,21.4042171 2.70822547,20.7711482 2.84939457,20.3426722 C2.88475992,20.2354071 2.98501044,20.1354489 2.99933194,20.0237996 C3.0297286,19.7873486 2.97390397,19.443048 2.94292276,19.142881 C2.9148643,18.8678497 2.81549061,18.5638831 2.84939457,18.3180793 C2.86167015,18.2271816 2.93356994,18.1275157 2.96162839,18.0369102 C3.10864301,17.5654697 2.99231733,17.0446347 3.03674322,16.6123591 C3.05924843,16.3928601 3.17440501,16.2049269 3.14926931,16.0126096 C3.12968685,15.8635491 3.00868476,15.7396242 2.92421712,15.6186221 C2.97127349,15.4792067 3.15979123,15.4385804 3.18668058,15.2626305 C3.20947808,15.1126931 3.13465553,14.9913987 3.07415449,14.8502296 C3.10104384,14.6620042 3.32784969,14.6696033 3.33661795,14.5129436 C3.3456785,14.351023 3.11653445,14.308643 3.05544885,14.1379541 C3.07590814,14.0125678 3.1697286,13.9877244 3.16797495,13.8941962 C3.16563674,13.7527349 2.99845511,13.6977871 2.99933194,13.5382046 C3.00108559,13.2240084 3.41903967,13.1728601 3.43043841,12.7882255 C3.33866388,12.5988309 3.05135699,12.800501 2.90551148,12.6946973 C2.93415449,12.4465553 3.19194154,12.3796242 3.22409186,12.1323591 C3.25916493,11.8646347 3.13290188,11.4975365 3.11156576,11.15762 C3.08379958,10.7098539 3.15277662,10.208309 3.11156576,9.80789144 C3.09052192,9.60125261 2.98530271,9.38526096 2.96162839,9.18914405 C2.92509395,8.88400835 2.98881002,8.58530271 2.94292276,8.28951983 C2.92860125,8.19569937 2.87949896,8.10275574 2.86810021,8.00835073 C2.82221294,7.625762 2.91661795,7.05173278 2.94292276,6.63991649 C2.95373695,6.47244259 2.98325678,6.31929019 3.03674322,6.17139875 C2.83770355,5.86070981 2.42413361,5.82212944 2.49311065,5.3091858 C2.54659708,4.90935282 3.14605428,4.58726514 3.44914405,4.39056367 C3.84313152,4.13482255 4.25816284,3.83348643 4.66764092,3.75311065 C5.45269311,3.5993737 5.79699374,4.36104384 6.09219207,4.85908142 C6.17227557,4.99411273 6.29620042,5.11219207 6.31695198,5.19665971 C6.35436326,5.34805846 6.30643006,5.49039666 6.31695198,5.59006263 C6.33156576,5.72421712 6.37043841,5.84025052 6.42947808,5.94634656 C6.52914405,6.12551148 6.78108559,6.18016701 6.84187891,6.35874739 C6.88951983,6.49787056 6.79073069,6.67177453 6.80446764,6.84626305 C6.81703549,7.00701461 6.97983299,7.20050104 7.02951983,7.40860125 C7.0777453,7.61085595 7.06517745,7.81077244 7.12334029,7.97093946 C7.18734864,8.14893528 7.32267223,8.30354906 7.40421712,8.47686848 C7.51791232,8.7182881 7.53632568,8.95736952 7.62926931,9.15173278 C7.72981211,9.36217119 7.99695198,9.53724426 8.04167015,9.71407098 C8.06446764,9.80438413 8.01887265,9.93941545 8.04167015,10.0329436 C8.12204593,10.363215 8.68029228,10.2930689 8.60400835,10.7826305 C8.99302714,11.2546555 9.26221294,11.9195825 9.41010438,12.6569937 C9.44751566,12.8449269 9.41536534,13.0962839 9.48492693,13.2757411 C9.53987474,13.4172025 9.78538622,13.4703967 9.89732777,13.5756159 C10.0528184,13.7214614 10.1478079,14.0227975 10.2723173,14.2691858 C10.5891441,14.8955324 11.1123173,15.7630063 11.265762,16.4624217 C11.3069729,16.6512317 11.2967432,16.9020042 11.4721086,17.0434656 C11.6743633,17.0861378 11.9546555,17.1293946 12.0531524,17.3246347 C12.0964092,17.4105637 12.0844259,17.5263048 12.1092693,17.6245094 C12.1694781,17.8618372 12.3498121,18.1070564 12.4655532,18.3554906 C12.7929019,19.0589979 13.2929854,19.7306472 13.6463466,20.3800835 C13.8044676,20.316952 13.9184551,20.1456785 14.0587474,20.0050939 C14.1809186,19.8829228 14.3668058,19.7423382 14.433737,19.5739875 C14.5363257,19.3150313 14.4574113,19.0706889 14.4898539,18.8804175 C14.5351566,18.614739 14.7818372,18.3253862 14.9773695,18.2242589 C15.1638413,18.1281002 15.3865553,18.1526514 15.408476,17.943382 C15.4210438,17.8235491 15.276952,17.717453 15.2772443,17.5683925 C15.2775365,17.3953653 15.5274322,17.1977871 15.6145303,17.0247599 C15.7042589,16.8467641 15.6911065,16.6038831 15.8582881,16.5375365 C15.9763674,16.4904802 16.123382,16.5761169 16.2519833,16.5375365 C16.19762,16.1952818 16.1721921,15.7972025 16.3268058,15.4876827 C16.3744468,15.3924008 16.4714823,15.3240084 16.5331524,15.2065136 C16.6348643,15.0121503 16.6947808,14.7555324 16.7579123,14.5316493 C16.823382,14.3013361 16.8242589,14.0435491 16.908142,13.8006681 C16.9917328,13.5577871 17.2726096,13.3739457 17.4327766,13.1070981 C17.7092693,12.6467641 17.8790814,12.0914405 18.1076409,11.5326096 C18.2163674,11.2663466 18.319833,10.9986221 18.4452192,10.7452192 C18.5767432,10.4789562 18.7211273,10.2299374 18.7450939,9.92041754 C18.7749061,9.53286013 18.7524008,9.1908977 18.913737,8.87056367 C19.0423382,8.61511482 19.32,8.34096033 19.5324843,8.06446764 C19.6151983,7.95661795 19.7180793,7.79528184 19.8320668,7.65235908 C19.9440084,7.51206681 20.1053445,7.3805428 20.1322338,7.25837161 C20.1740292,7.06780793 20.1018372,6.89478079 20.1322338,6.75244259 C20.1725678,6.56304802 20.3239666,6.53586639 20.4134029,6.35874739 C20.0121086,6.43356994 19.9364092,6.24037578 19.7572443,5.9840501 C19.6055532,5.76659708 19.3635491,5.50939457 19.4573695,5.15895616 C19.5643424,4.75970772 20.1991649,4.46450939 20.6007516,4.2406263 C21.0695616,3.97933194 21.5012526,3.71073069 22.0817119,3.65958246 C22.7571608,3.59995825 22.7644676,3.97173278 22.8501044,4.54050104 C22.963215,5.29048017 22.8992067,5.86713987 22.7939875,6.56480167 C22.7481002,6.86818372 22.6206681,7.27503132 22.6814614,7.52083507 C22.7299791,7.71812109 23.0228392,7.74997912 23.0187474,7.95223382 C23.0161169,8.11006263 22.860334,8.10421712 22.7562839,8.19569937" id="Fill-1"></path>
                <path d="M38.6148643,10.2389979 C38.5493946,10.4424217 38.4117328,10.5733612 38.277286,10.7075157 C38.4871399,10.8197495 38.4272234,11.2192902 38.4272234,11.6074322 L38.4272234,13.7255532 C38.3713987,13.8635073 38.2240919,13.9096868 38.1647599,14.0441336 C38.1518998,14.2081002 38.3208351,14.2574948 38.3146973,14.4191232 C38.3088518,14.5795825 38.0843841,14.6307307 38.0899374,14.7754071 C38.0946138,14.8996242 38.3164509,14.9522338 38.3711065,15.0752818 C38.4275157,15.2024217 38.4219624,15.5844259 38.4272234,15.9374948 C38.4403758,16.7924008 38.4731106,17.8571608 38.1647599,18.3744885 C38.2340292,18.4551566 38.3810438,18.4580793 38.4646347,18.5241336 C38.7171608,19.2530689 38.545595,20.4052192 38.5958664,21.3361169 C38.4848017,21.5211273 38.2164927,21.6406681 37.9587056,21.7672234 C37.4936952,21.9951983 36.9325261,22.2787056 36.4216284,21.8607516 C36.4727766,21.0184134 36.4102296,20.0626722 37.0400835,19.7990397 C36.9851357,19.6113987 36.6002088,19.4529854 36.5528601,19.2367015 C36.5005428,18.9979123 36.7361169,18.7415866 36.6650939,18.4493111 C36.6294363,18.3020042 36.499666,18.2154906 36.4964509,18.1120251 C36.4920668,17.9708559 36.7045511,17.8752818 36.7215031,17.7370355 C36.737286,17.6078497 36.6081002,17.4397912 36.5902714,17.305929 C36.5622129,17.0949061 36.5625052,16.8499791 36.6276827,16.6497704 C36.6519415,16.5758246 36.7337787,16.5004175 36.7589144,16.4060125 C36.8945303,15.9000835 36.5563674,15.3964927 36.5902714,14.9253445 C36.6203758,14.8180793 36.7814196,14.8414614 36.8150313,14.7377035 C36.8445511,14.694739 36.8445511,14.5559081 36.8150313,14.5129436 C36.8313987,14.4153236 36.6989979,14.4667641 36.6840919,14.4004175 C36.6238831,13.9476827 36.6118998,13.2824635 36.5902714,12.7695198 C36.5779958,12.480167 36.6127766,12.3249687 36.77762,12.1697704 C36.7437161,12.0411691 36.6645094,12.0329854 36.6463883,11.9073069 C36.6338205,11.8190397 36.6992902,11.7453862 36.6840919,11.6261378 C36.6612944,11.4478497 36.3690188,11.3201253 36.3465136,11.1199165 C36.322547,10.9039248 36.4870981,10.6020042 36.4964509,10.3141127 C36.502881,10.120334 36.4184134,9.85728601 36.5154489,9.67665971 C36.5899791,9.53753653 36.8661795,9.47820459 37.0587891,9.47060543 C37.020501,9.14968685 36.656618,8.98250522 36.5154489,8.70192067 C36.345929,8.36580376 36.4049687,7.82860125 36.5528601,7.4834238 C37.1108142,7.36914405 37.3770772,6.60279749 38.108643,6.75244259 C38.5046764,6.83340292 38.5067223,7.36154489 38.4833403,7.91453027 C38.4716493,8.19453027 38.4772025,8.50141962 38.4646347,8.79574113 C38.4403758,9.37210856 38.3263883,9.88271399 38.6148643,10.2389979" id="Fill-2"></path>
                <path d="M49.2618789,17.6058038 C49.2735699,17.3339875 48.7249687,17.005762 48.4934864,16.8558246 C48.1404175,16.6278497 47.8156994,16.459499 47.5000418,16.3124843 C46.8318998,16.0012109 45.8124426,15.6954906 44.9879332,15.7688518 C44.6804593,15.7960334 44.6278497,15.9348643 44.4068894,16.0313152 C44.1762839,16.131858 43.8898539,16.1467641 43.6759081,16.2373695 C43.4453027,16.3352818 43.3015031,16.5658873 43.0758664,16.6310647 C43.3295616,16.8581628 43.4192902,17.2691023 43.5446764,17.6058038 C43.5969937,17.7463883 43.740501,17.8624217 43.7133194,18.0556159 C43.6960752,18.1777871 43.5063883,18.277453 43.4882672,18.4118998 C43.4701461,18.5483925 43.5733194,18.7421712 43.619499,18.9181211 C43.748977,19.4062213 43.7083507,19.9068894 43.7133194,20.5300209 C44.0988309,20.3654697 44.2744885,20.7278914 44.5007098,20.7924843 C44.7468058,20.8626305 44.9470146,20.7524426 45.1942797,20.7737787 C45.3363257,20.7860543 45.4558664,20.8392484 45.5879749,20.8486013 C46.1301461,20.8874739 46.6831315,20.8076827 47.0873486,20.6051357 C47.5795407,20.3584551 48.1953653,19.7204175 48.399666,19.1989979 C48.5373278,18.8473904 48.4663048,18.4595407 48.568309,18.0556159 C48.7962839,17.9921921 49.2490188,17.9036326 49.2618789,17.6058038 L49.2618789,17.6058038 Z M43.9757829,7.4834238 C43.9319415,7.66375783 43.7647599,7.70496868 43.7507307,7.877119 C43.7410856,7.99870564 43.8562422,8.09223382 43.8632568,8.23311065 C43.8895616,8.75043841 43.214405,8.82204593 43.3383299,9.48931106 C43.3988309,9.8143215 43.86238,10.0928601 43.8445511,10.3328184 C43.8328601,10.4906472 43.5598747,10.5470564 43.5446764,10.6701044 C43.5265553,10.8156576 43.7261795,10.8875574 43.7694363,11.0263883 C43.823215,11.196785 43.7884342,11.4946138 43.7884342,11.7386639 C43.7884342,12.22881 43.7931106,12.6891441 43.6572025,13.0132777 C43.6101461,13.1252192 43.4759916,13.2400835 43.4698539,13.3505637 C43.4602088,13.5151148 43.6487265,13.645762 43.7133194,13.8006681 C43.9088518,14.2694781 43.6247599,14.7166597 43.6007933,15.1501044 C43.7621294,15.1521503 43.811524,15.0168267 43.919666,14.9627557 C44.216618,14.8134029 44.6334029,14.6836326 45.0256367,14.6438831 C45.2515658,14.6213779 45.4929854,14.6485595 45.7379123,14.6254697 C45.8399165,14.6155324 45.9498121,14.5594154 46.0564927,14.5503549 C46.4101461,14.5202505 46.8105637,14.637453 47.1998747,14.6815866 C47.5982463,14.7268894 48.0138622,14.7368267 48.2871399,14.8502296 C48.4826722,14.9314823 48.5496033,15.094572 48.736952,15.16881 C48.8342797,15.2073904 48.914071,15.1933612 48.9994154,15.2252192 C49.1975783,15.2988727 49.4045094,15.5212944 49.5804593,15.693737 C50.0533612,16.157286 50.6098539,16.9578288 50.6864301,17.6996242 C50.7358246,18.1789562 50.5838413,18.511858 50.3865553,18.7865971 C50.288643,18.9230898 49.9639248,19.1636326 49.9367432,19.3302296 C49.9180376,19.4445094 50.0247182,19.5897704 50.0115658,19.7426305 C49.9873069,20.0258455 49.5772443,20.3385804 49.3179958,20.5487265 C48.7065553,21.0447182 48.1518163,21.2770772 47.4062213,21.6359916 C47.0680585,21.7987891 46.7307724,22.0440084 46.3750731,22.0858038 C46.0822129,22.1202923 45.5812526,22.0562839 45.2691023,22.0109812 C45.1504384,21.9934447 45.0373278,21.9303132 44.9505219,21.9358664 C44.8040919,21.9455115 44.7438831,22.0849269 44.6319415,22.1045094 C44.3770772,22.1489353 43.9465553,21.9516493 43.6759081,21.8797495 C43.1962839,21.7520251 42.6114405,21.5722756 42.0450104,21.7298121 C41.8234656,21.7914823 41.6399165,21.9659708 41.445261,21.9171608 C41.2523591,21.8689353 41.1184969,21.3492693 41.2389144,21.148476 C41.2962004,21.0537787 41.3675157,21.0876827 41.4639666,21.0175365 C41.6293946,20.897119 41.785762,20.5688935 41.8199582,20.3426722 C41.8532777,20.122881 41.7828392,19.856618 41.8576618,19.5926931 C41.8895198,19.4804593 42.0450104,19.3895616 42.0450104,19.2554071 C42.0450104,19.0931942 41.8304802,19.0554906 41.782547,18.8617119 C41.7121086,18.5758664 41.8100209,18.1772025 41.8576618,17.8869729 C41.9470981,17.3415866 42.0648852,16.8920668 41.9701879,16.2373695 C41.9415449,16.0403758 41.7954071,15.68 41.8386639,15.5627975 C41.8883507,15.428643 42.1189562,15.4982046 42.1575365,15.3564509 C42.0727766,15.1512735 41.6761587,14.8326931 41.9137787,14.4752401 C41.8787056,14.4094781 41.8655532,14.3396242 41.8576618,14.2691858 C41.7945303,13.7036326 41.8334029,12.9863883 41.8576618,12.3384134 C41.8690605,12.034739 41.8868894,11.7041754 41.8950731,11.4010856 C41.9041336,11.0749061 41.9546973,10.7086848 41.9137787,10.4640501 C41.8962422,10.3588309 41.7729019,10.26238 41.7638413,10.1638831 C41.7448434,9.95286013 41.9517745,9.85816284 41.9701879,9.65795407 C41.9935699,9.39899791 41.7325678,9.22538622 41.7638413,9.00179541 C41.7997912,8.745762 42.1622129,8.71068894 42.3448852,8.62709812 C42.2007933,8.15244259 41.423048,8.31173278 41.3140292,7.80200418 C41.7275992,7.53018789 42.2370355,6.98392484 42.9072234,6.92108559 C43.4441336,6.8708142 43.7390397,7.16951983 43.9757829,7.4834238 L43.9757829,7.4834238 Z" id="Fill-3"></path>
                <path d="M54.8104384,16.5933612 C55.0366597,16.6617537 55.2333612,16.3753236 55.4475992,16.3498956 C55.568309,16.3355741 55.7112317,16.408643 55.8602923,16.4250104 C56.0771608,16.4486848 56.3910647,16.4849269 56.5725678,16.4250104 C56.7327349,16.3718163 56.8467223,16.1897286 57.02238,16.1999582 C57.26,16.2136952 57.5420459,16.4887265 57.8658873,16.4060125 C57.3590814,15.5128184 55.2508977,15.8819624 54.8104384,16.5933612 L54.8104384,16.5933612 Z M60.2087683,17.6058038 C59.7279749,17.5970355 59.1548225,17.8843424 58.6529854,17.7183299 C58.4969102,17.6665971 58.4989562,17.4669729 58.334405,17.4558664 C58.1111065,17.4409603 58.0783716,17.7156994 57.8468894,17.7557411 C57.7068894,17.78 57.5961169,17.7127766 57.4347808,17.6996242 C56.9770772,17.6625052 56.4278914,17.6996242 55.8789979,17.6996242 C55.1372025,17.6996242 53.726096,17.531858 53.6106472,18.1307307 C53.5720668,18.3306472 53.6787474,18.5907724 53.7418789,18.7304802 C53.80238,18.8643424 53.9353653,18.9891441 54.023048,19.142881 C54.1329436,19.3354906 54.1925678,19.5549896 54.2855115,19.6865136 C54.3693946,19.8054697 54.5751566,19.905428 54.7540292,20.0427975 C54.920334,20.1699374 55.0328601,20.3154906 55.185428,20.4174948 C55.546096,20.6589144 56.0987891,20.9400835 56.5161587,20.9611273 C56.8101879,20.9760334 57.0963257,20.885428 57.359666,20.81119 C57.6253445,20.7363674 57.9070981,20.686096 58.1470564,20.6051357 C58.4562839,20.500501 58.7126096,20.2903549 58.9531524,20.11762 C59.1764509,19.9571608 59.4368685,19.6654697 59.6841336,19.5739875 C60.1812944,19.3904384 60.8330689,19.522547 60.6775783,20.173737 C60.6311065,20.3683925 60.4282672,20.6019207 60.2838831,20.7924843 C59.9501044,21.2326514 59.6256785,21.5795825 58.9905637,21.7108142 C58.7096868,21.768977 58.385261,21.7812526 58.0719415,21.8233403 C57.7735282,21.8636743 57.4724843,21.917453 57.1723173,21.9358664 C56.5263883,21.9753236 55.905595,22.1468894 55.3166597,22.1045094 C54.6175365,22.0545303 53.9920668,21.683048 53.5355324,21.3922338 C53.0155741,21.0610856 52.6055115,20.6103967 52.2986221,20.1550313 C52.2653027,20.0313987 52.3372025,19.8992902 52.3173278,19.780334 C52.2904384,19.620167 52.0928601,19.4573695 52.0548643,19.3492276 C51.7009186,18.3397077 52.2617954,17.4658038 52.6923173,16.8748225 C52.9419207,16.5319833 53.2643006,16.0991232 53.6293528,15.8810856 C53.9906054,15.6659708 54.4681837,15.4783299 54.9042589,15.2626305 C55.3113987,15.0612526 55.7767015,14.7681002 56.1975783,14.6815866 C56.359499,14.6482672 56.5699374,14.6470981 56.7786221,14.6067641 C57.1790397,14.5290188 57.4537787,14.4273069 57.7346555,14.6438831 C57.8413361,14.7263048 57.8936534,14.8291858 58.0158246,14.8502296 C58.1634238,14.8756576 58.2882255,14.7938205 58.4282255,14.8128184 C58.5983299,14.8356159 58.8517328,15.0647599 59.0092693,15.2065136 C59.4614196,15.6127766 60.0702296,16.2724426 60.2277662,16.8935282 C60.2824217,17.1098121 60.2803758,17.4406681 60.2087683,17.6058038 L60.2087683,17.6058038 Z" id="Fill-4"></path>
                <path d="M64.4265971,15.4876827 C64.5674739,15.4242589 64.6431733,15.2524008 64.7825887,15.1875157 C64.8872234,15.1392902 65.0202088,15.1398747 65.120167,15.0939875 C65.223048,15.0466388 65.2937787,14.9539875 65.3826305,14.9063466 C65.4647599,14.8627975 65.5790397,14.8437996 65.6825052,14.7941127 C65.820167,14.7283507 65.9215866,14.6260543 66.0384969,14.5877662 C66.2609186,14.5149896 66.7650939,14.4457203 67.0322338,14.5129436 C67.2131524,14.5585386 67.3180793,14.7242589 67.4820459,14.7564092 C67.6752401,14.7946973 67.9397495,14.7020459 68.1756159,14.7564092 C68.3875157,14.8058038 68.5973695,14.9823382 68.6815449,15.16881 C68.751691,15.3240084 68.8127766,15.6314823 68.7189562,15.8249687 C68.6432568,15.9813361 68.3056785,16.1534864 68.156618,16.2560752 C68.0736117,16.3133612 67.968977,16.3791232 67.8570355,16.4624217 C67.7617537,16.5331524 67.6679332,16.6415866 67.5571608,16.6497704 C67.3020042,16.668476 67.162881,16.4200418 66.9948225,16.33119 C66.3535699,15.9921503 65.0944468,16.177453 64.5578288,16.5375365 C64.228142,16.7582046 64.2301879,16.9341545 64.1828392,17.4932777 C64.1638413,17.7183299 64.125261,17.9322756 64.145428,18.1307307 C64.1617954,18.2920668 64.239833,18.4627557 64.2579541,18.6556576 C64.3193319,19.3121086 64.1708559,20.0734864 64.2579541,20.642547 C64.2921503,20.8670146 64.5125261,21.2840919 64.2953653,21.5611691 C64.1033403,21.8058038 63.6789562,21.6608351 63.3580376,21.7672234 C63.0432568,21.8715658 62.8994572,22.231357 62.5522338,22.1419207 C62.262881,22.0676827 62.3271816,21.7546555 62.3271816,21.2797077 C62.3271816,20.9468058 62.2795407,20.6492693 62.3458873,20.4362004 C62.3914823,20.2894781 62.5200835,20.2117328 62.5332359,20.11762 C62.5472651,20.0170772 62.4464301,19.8592484 62.4207098,19.7239248 C62.2339457,18.7374948 62.6428392,17.1466388 62.308476,16.2560752 C62.2424217,16.0801253 62.0983299,15.9906889 62.1021294,15.8249687 C62.1073904,15.6034238 62.411357,15.3564509 62.6083507,15.1875157 C62.9137787,14.925929 63.2656785,14.6248852 63.7517328,14.7564092 C64.1086013,14.8531524 64.2214196,15.1351983 64.4265971,15.4876827" id="Fill-5"></path>
                <path d="M72.1493946,15.468977 C72.3136534,15.4505637 72.3805846,15.2553236 72.5243841,15.1875157 C72.6208351,15.1422129 72.7409603,15.1384134 72.8432568,15.0939875 C72.9595825,15.0431315 73.0449269,14.946096 73.1615449,14.8876409 C73.2498121,14.8437996 73.3681837,14.8224635 73.4617119,14.7754071 C73.5777453,14.7166597 73.6674739,14.6199165 73.7615866,14.5877662 C74.0342797,14.4948225 74.5700209,14.4439666 74.8298539,14.5316493 C74.9619624,14.5760752 75.0587056,14.7251357 75.2235491,14.7564092 C75.4374948,14.7970355 75.6914823,14.7040919 75.917119,14.7564092 C76.3587474,14.8587056 76.6428392,15.3783716 76.4420459,15.806263 C76.3379958,16.028977 76.0609186,16.1292276 75.8797077,16.2560752 C75.7616284,16.3390814 75.465261,16.6404175 75.279666,16.6497704 C75.0329854,16.6623382 74.8985386,16.4162422 74.7363257,16.33119 C74.2631315,16.0821712 73.4237161,16.1011691 72.8242589,16.2937787 C72.4989562,16.3981211 72.0564509,16.5895616 71.9620459,16.8935282 C71.9202505,17.0273904 71.9421712,17.2840084 71.9246347,17.4932777 C71.9073904,17.6984551 71.8609186,17.9106472 71.8685177,18.0556159 C71.8758246,18.2081837 71.9602923,18.3683507 71.9807516,18.5618372 C72.0473904,19.1855532 71.8992067,19.9793737 71.9807516,20.5864301 C72.0146555,20.8363257 72.2595825,21.311858 72.0181628,21.5795825 C71.8503967,21.7660543 71.4759916,21.6719415 71.1559499,21.7485177 C70.8256785,21.8274322 70.5968267,22.2521086 70.2563257,22.1419207 C70.0227975,22.0665136 70.0499791,21.768977 70.0499791,21.3735282 C70.0499791,21.0701461 70.0061378,20.6568685 70.0686848,20.4362004 C70.106096,20.3043841 70.2610021,20.2304384 70.2750313,20.11762 C70.2861378,20.0281837 70.1861795,19.863048 70.1625052,19.7426305 C69.9672651,18.7410021 70.3773278,17.1349478 70.0499791,16.2560752 C69.9786639,16.0643424 69.8401253,16.0108559 69.8439248,15.8249687 C69.848309,15.5958246 70.1543215,15.35762 70.3498539,15.1875157 C70.6327766,14.9420042 71.0483925,14.5912735 71.5496451,14.7754071 C71.8594572,14.88881 71.9611691,15.1465971 72.1493946,15.468977" id="Fill-6"></path>
                <path d="M34.659499,21.3174113 C34.4984551,21.5222965 34.1091441,21.5518163 33.7598747,21.6734029 C33.5354071,21.7514405 33.2878497,21.9498956 33.0663048,21.9171608 C32.7696451,21.8730271 32.7298956,21.4468894 32.5787891,21.2048852 C31.6318163,21.7184134 30.6524008,22.3888935 29.1483507,22.123215 C28.9858455,22.094572 28.8236326,22.0080585 28.6611273,21.9922756 C28.5486013,21.9811691 28.4118163,22.0407933 28.2861378,22.0296868 C27.9631733,22.0007516 27.58,21.7178288 27.3113987,21.5234656 C27.0410438,21.3279332 26.714572,21.0999582 26.5804175,20.7924843 C26.3840084,20.3417954 26.5897704,19.6426722 26.6365344,19.1054697 C26.6751148,18.6667641 26.6365344,18.0626305 26.6365344,17.4932777 C26.6365344,16.9341545 26.7499374,16.3890605 26.6555324,15.9562004 C26.6298121,15.8392902 26.4819207,15.6984134 26.4868894,15.5815031 C26.497119,15.3313152 27.0045094,15.1375365 27.2175783,15.0565762 C27.3748225,14.996952 27.519499,14.9706472 27.7050939,14.9253445 C27.8655532,14.8858873 28.0941127,14.7961587 28.2300209,14.831524 C28.3314405,14.8578288 28.3729436,15.0098121 28.4547808,15.1126931 C28.5509395,15.2331106 28.6470981,15.2588309 28.6611273,15.3938622 C28.6736952,15.5160334 28.5912735,15.6136534 28.5673069,15.7311482 C28.4945303,16.0903549 28.4635491,16.7184551 28.4924843,17.1934029 C28.5114823,17.5078914 28.6669729,17.8586221 28.6424217,18.0369102 C28.6082255,18.2832985 28.2896451,18.285929 28.2487265,18.5431315 C28.2253445,18.6904384 28.3007516,18.8611273 28.3238413,19.0116493 C28.3472234,19.1671399 28.3784969,19.3220459 28.3986639,19.480167 C28.4463048,19.8504802 28.3551148,20.1930271 28.4547808,20.5113152 C28.5065136,20.6755741 28.8701044,20.9751566 29.0361169,21.0362422 C29.3313152,21.1443841 30.0260543,21.0727766 30.3107307,20.979833 C30.5346138,20.9067641 30.6763674,20.6936952 30.8730689,20.642547 C31.1320251,20.5750313 31.3871816,20.6358246 31.6227557,20.4926096 C31.8323173,20.3651775 32.0012526,20.0673486 32.128977,19.8738622 C32.2669311,19.6648852 32.5232568,19.4082672 32.5600835,19.1989979 C32.6033403,18.9529019 32.4393737,18.6691023 32.4101461,18.4493111 C32.368643,18.1365762 32.4162839,17.7878914 32.3914405,17.4558664 C32.3683507,17.145762 32.3224635,16.8388727 32.3163257,16.5375365 C32.3043424,15.9342797 32.3613361,15.3298539 32.4288518,14.6815866 C32.4425887,14.6640501 32.463048,14.6532359 32.485261,14.6438831 C32.6173695,14.6909395 32.6638413,14.7970355 32.7661378,14.8502296 C32.8430063,14.8899791 32.9873904,14.9726931 33.0850104,14.9814614 C33.4032985,15.0101044 33.6429645,14.6465136 33.9285177,14.6815866 C34.0088935,14.691524 34.1681837,14.8560752 34.2096868,14.9627557 C34.2976618,15.1898539 34.2470981,15.6642171 34.2470981,15.9936117 C34.2470981,16.6605846 34.3002923,17.3798747 34.2470981,18.0556159 C34.2044259,18.5974948 34.1032985,19.0505219 34.1535699,19.6675157 C34.171691,19.8922756 34.1591232,20.146263 34.2096868,20.3049687 C34.2842171,20.5390814 34.5954906,20.5393737 34.6782046,20.7737787 C34.7430898,20.9567432 34.7021712,21.0511482 34.659499,21.3174113" id="Fill-7"></path>
                <path d="M85.1208768,15.9374948 C85.2372025,16.1768685 85.3672651,16.3040084 85.345929,16.6123591 C85.3292693,16.8529019 85.1813779,17.0013779 85.2334029,17.305929 C85.2699374,17.5187056 85.4920668,17.719499 85.5522756,17.9620877 C85.594071,18.1313152 85.605762,18.4104384 85.5896868,18.6179541 C85.577119,18.7795825 85.5186639,18.9166597 85.5332777,19.0867641 C85.5554906,19.3407516 85.7291023,19.5535282 85.7396242,19.7426305 C85.7513152,19.9516075 85.6463883,20.0582881 85.6458038,20.2488518 C85.6449269,20.5341127 85.8451357,20.6583299 85.8708559,20.8860125 C85.9030063,21.1721503 85.72881,21.445428 85.683215,21.6921086 C85.6212526,22.0273486 85.7314405,22.4683925 85.7022129,22.8544885 C85.6726931,23.2408768 85.4894363,23.5831315 85.4584551,23.8479332 C85.4204593,24.1714823 85.5698121,24.5140292 85.514572,24.8413779 C85.4935282,24.9673486 85.3982463,25.1126096 85.345929,25.2724843 C85.2155741,25.6720251 85.1413361,26.2779123 84.9896451,26.6783299 C84.7309812,27.362547 83.8468476,28.0599165 83.2465136,28.5339875 C82.8873069,28.8177871 82.5985386,29.042547 82.2530689,29.3400835 C81.937119,29.6121921 81.648643,29.9263883 81.2409186,30.1087683 C80.3936117,30.4872651 79.3881837,30.7339457 78.3725261,30.8210438 C77.8271399,30.8678079 77.3413779,30.7579123 76.8170355,30.6149896 C76.2900626,30.47119 75.6917745,30.3539875 75.279666,30.1274739 C75.1738622,30.0690188 75.0528601,29.9646764 74.9049687,29.8650104 C74.4420042,29.5528601 73.7934447,28.959833 74.1926931,28.1405846 C74.3119415,27.8953653 74.6404593,27.5589562 74.9049687,27.4470146 C75.0043424,27.4049269 75.2250104,27.2970772 75.41119,27.4093111 C75.5403758,27.4873486 75.4988727,27.682881 75.5424217,27.8404175 C75.620167,28.1248017 75.9124426,28.5047599 76.1608768,28.740334 C76.5414196,29.1010021 77.0485177,29.3102714 77.6231315,29.4151983 C77.7973278,29.4467641 78.0460543,29.4830063 78.1854697,29.4713152 C78.2819207,29.4634238 78.374572,29.3848017 78.4666388,29.3777871 C78.6040084,29.3669729 78.7445929,29.4368267 78.8790397,29.433904 C79.2154489,29.4260125 79.5427975,29.2757829 79.8537787,29.1714405 C80.1445929,29.0738205 80.4959081,28.9425887 80.7159916,28.8151566 C81.0138205,28.642714 81.2830063,28.3939875 81.6156159,28.1779958 C81.8970772,27.9953236 82.2434238,27.6834656 82.4030063,27.428309 C82.5158246,27.2476827 82.5970772,26.9931106 82.6841754,26.7534447 C82.7677662,26.5234238 82.9022129,26.296618 82.9653445,26.097286 C83.0296451,25.8944468 83.0074322,25.7179123 83.0965762,25.5349478 C83.2000418,25.3224635 83.4613361,25.2292276 83.4902714,24.9349061 C83.5078079,24.7580793 83.3377035,24.6090188 83.3213361,24.428977 C83.2941545,24.1270564 83.4572443,23.7377453 83.5840919,23.5103549 C83.6334864,23.4215031 83.7205846,23.3592484 83.733737,23.2665971 C83.7705637,23.0061795 83.5957829,22.6680167 83.5466806,22.3669729 C83.4946555,22.0507307 83.4613361,21.7587474 83.4338622,21.4109395 C82.7005428,21.7105219 82.1753236,22.3298539 81.5220877,22.7980793 C81.1909395,23.0354071 80.7992902,23.1681002 80.3410021,23.285595 C79.8894363,23.4010438 79.4331942,23.5720251 78.9915658,23.6041754 C78.1474739,23.6655532 77.3261795,23.1862213 77.0043841,22.648142 C76.7807933,22.2743215 76.8500626,21.7698539 76.9856785,21.3922338 C77.0236743,21.2864301 77.0973278,21.1724426 77.1169102,21.0736534 C77.1680585,20.8117745 77.0467641,20.5560334 77.1169102,20.2675574 C77.18238,19.9969102 77.5141127,19.9770355 77.6231315,19.7052192 C77.703215,19.5053027 77.6546973,19.1621712 77.6792484,18.8991232 C77.7093528,18.5752818 77.8423382,18.1716493 77.9791232,17.8682672 C78.0440084,17.7241754 78.1629645,17.6096033 78.2038831,17.474572 C78.2649687,17.2749478 78.2401253,17.051357 78.2038831,16.9309395 C78.1410438,16.720501 77.8905637,16.5498121 77.8853027,16.3124843 C77.8785804,15.993904 78.1442589,15.5680585 78.4289353,15.4125678 C78.666263,15.283382 78.9521086,15.273737 79.1789144,15.16881 C79.4025052,15.0653445 79.4869729,14.8052192 79.8163674,14.8502296 C80.0878914,14.8873486 80.4470981,15.2141127 80.4722338,15.4312735 C80.5119833,15.7755741 80.2521503,15.9363257 80.1723591,16.1812526 C80.1060125,16.3840919 80.0981211,16.6269729 80.059833,16.837119 C79.9505219,17.439499 79.7286848,18.01762 79.591023,18.6366597 C79.4887265,19.0981628 79.4004593,19.5067641 79.3101461,19.8738622 C79.2104802,20.2786639 79.0053027,20.6866806 79.0099791,21.0923591 C79.0149478,21.4600418 79.2999165,21.9253445 79.5726096,21.9732777 C79.7254697,22.000167 79.8748225,21.911023 80.059833,21.8797495 C80.223215,21.8519833 80.3956576,21.8660125 80.5283507,21.8420459 C80.9775783,21.7613779 81.417453,21.4419207 81.7468476,21.1671816 C82.0914405,20.8798747 82.566096,20.6177035 82.8341127,20.3613779 C83.154739,20.0544885 83.5650939,19.4711065 83.6212109,19.0677662 C83.6764509,18.674071 83.6516075,18.1587891 83.6212109,17.7370355 C83.583215,17.2024635 83.4397077,16.6325261 83.2839248,16.2747808 C83.2365762,16.1663466 83.0822547,16.025762 83.0778706,15.8810856 C83.0658873,15.4762839 83.6136117,15.2529854 83.9213779,15.0752818 C84.0979123,14.9732777 84.2963674,14.8288935 84.539833,14.8502296 C84.8741962,14.8794572 85.5210021,15.5987474 85.1208768,15.9374948" id="Fill-8"></path>
                <path d="M65.6450939,26.1908142 C65.2929019,26.4237578 65.091524,26.7879332 64.6890605,26.959499 C64.5952401,26.9992484 64.4850522,27.0086013 64.3891858,27.0533194 C64.1264301,27.1751983 63.8411691,27.5320668 63.6017954,27.7843006 C62.9625887,28.4577035 62.3987891,29.0308559 61.7271399,29.6773695 C61.5964927,29.8036326 61.4003758,29.9018372 61.3150313,30.0149478 C61.2083507,30.1561169 61.1601253,30.417119 61.0712735,30.6334029 C60.9870981,30.8385804 60.8935699,31.0656785 60.80881,31.214739 C60.7339875,31.3456785 60.5153653,31.5128601 60.4899374,31.6645511 C60.4607098,31.840501 60.5486848,32.1143633 60.5276409,32.3204175 C60.4928601,32.6600418 60.3017119,32.9207516 60.2651775,33.2951566 C60.213737,33.8224217 60.2651775,34.4160334 60.2651775,34.9824635 C60.2651775,35.546263 60.2464718,36.1135699 60.2651775,36.6507724 C60.2821294,37.1400418 60.3949478,37.6263883 60.5089353,38.0940292 C60.6237996,38.5663466 60.7249269,39.0374948 60.9026305,39.368643 C61.0496451,39.6436743 61.2694363,39.7275574 61.3711482,39.9870981 C61.4184969,40.1083925 61.4038831,40.2589144 61.4459708,40.3997912 C61.5494363,40.745261 62.016785,41.1240501 62.308476,41.3929436 C62.6495616,41.7080167 62.9169937,41.9842171 63.283215,42.2554489 C63.6190397,42.5041754 64.0556994,42.6786639 64.4265971,42.9490188 C64.8667641,43.2696451 65.2794572,44.0143633 65.98238,43.6987056 C66.0601253,43.6639248 66.194572,43.5864718 66.3012526,43.4926514 C66.3944885,43.4102296 66.474572,43.2559081 66.5824217,43.2488935 C66.7671399,43.236618 67.026096,43.6230063 67.2008768,43.6987056 C67.2634238,43.7258873 67.360167,43.720334 67.463048,43.7551148 C67.6129854,43.8050939 67.6685177,43.8863466 67.8570355,43.9050522 C68.3971608,43.9582463 69.0793319,44.0006263 69.76881,44.0736952 C70.408309,44.1412109 71.1290605,44.3048852 71.6808768,44.1862213 C71.7992484,44.1607933 71.9246347,44.0354071 72.0555741,43.9988727 C72.6611691,43.8296451 73.508476,44.157286 74.1362839,44.0359916 C74.2809603,44.0082255 74.414238,43.8810856 74.5299791,43.8673486 C74.7827975,43.8378288 74.9496868,44.0479749 75.1487265,44.0924008 C75.6669311,44.2075574 76.4806263,43.7504384 76.891858,44.0736952 C77.082714,43.9307724 77.3004593,43.5893946 77.2668476,43.3050104 C77.2373278,43.0533612 76.9871399,43.0419624 76.8544468,42.873904 C77.0651775,42.7938205 77.2276827,42.6903549 77.4544885,42.5740292 C77.5974113,42.5006681 77.9759081,42.3641754 77.9978288,42.2180376 C78.0273486,42.0204593 77.6321921,41.8208351 77.5293111,41.7492276 C77.362714,41.6337787 77.0850522,41.4923173 77.060501,41.2994154 C77.0409186,41.1436326 77.1712735,40.9720668 77.1917328,40.8118998 C77.2241754,40.5625887 77.2203758,40.2726514 77.248142,39.9683925 C77.2951983,39.4522338 77.3162422,38.8323173 77.3042589,38.225261 C77.291691,37.5843006 77.3106889,37.2116493 76.8357411,37.0254697 C76.5393737,36.9094363 76.0986221,36.9199582 75.6736534,36.8568267 C75.2551148,36.7948643 74.8169937,36.7621294 74.5115658,36.6881837 C74.1123173,36.5917328 73.5683925,36.3897704 73.8179958,35.7885595 C73.8858038,35.6243006 74.4022547,35.1093111 74.5863883,35.057286 C74.7564927,35.0093528 74.9870981,35.0470564 75.242547,35.0759916 C75.5152401,35.1069729 75.8048852,35.0838831 76.0109395,35.1324008 C76.1991649,35.1765344 76.3184134,35.3390397 76.4794572,35.3761587 C76.5951983,35.4024635 76.7653027,35.3668058 76.9108559,35.3948643 C77.0546555,35.4223382 77.1572443,35.5231733 77.2668476,35.5448017 C77.4354906,35.5778288 77.6698956,35.5412944 77.8665971,35.526096 C78.2702296,35.4945303 78.6355741,35.4956994 79.0663883,35.526096 C79.265428,35.539833 79.4922338,35.5220042 79.6100209,35.5822129 C79.7903549,35.674572 79.9528601,36.0761587 79.9850104,36.388309 C80.011023,36.6420042 79.9546138,36.9073904 79.9850104,37.1567015 C80.0291441,37.5235073 80.2866388,37.8549478 80.2845929,38.2626722 C80.2840084,38.4684342 80.2004175,38.6952401 80.1349478,38.8814196 C80.068309,39.0702296 79.9408768,39.2800835 79.9473069,39.4624635 C79.9513987,39.5752818 80.0270981,39.6495198 80.0411273,39.7436326 C80.0709395,39.9412109 80.0113152,40.1633403 79.9850104,40.3810856 C79.9581211,40.6023382 79.963382,40.8306054 79.9098956,40.9995407 C79.8637161,41.1456785 79.7248852,41.2614196 79.6851357,41.4119415 C79.6234656,41.6428392 79.6298956,41.9552818 79.7035491,42.1993319 C79.7690188,42.4156159 79.9470146,42.5591232 79.9850104,42.7990814 C80.0133612,42.98 79.945261,43.1480585 79.9850104,43.342714 C80.0308977,43.5695198 80.2162004,43.700167 80.2661795,43.9237578 C80.3944885,44.4995407 80.2056785,44.8397495 79.9850104,45.2357829 C79.8046764,45.2705637 79.7234238,45.4190397 79.5726096,45.4421294 C79.4685595,45.4582046 79.3507724,45.3977035 79.2163257,45.3860125 C78.6446347,45.3360334 78.0346555,45.3860125 77.4354906,45.3860125 C77.128309,45.3860125 76.8421712,45.3661378 76.5732777,45.4234238 C76.3517328,45.4704802 76.1418789,45.6020042 75.8987056,45.6294781 C75.282881,45.6987474 74.5837578,45.6294781 73.911524,45.6294781 C72.5845929,45.6294781 71.2787056,45.6370772 69.9564509,45.6107724 C69.308476,45.5979123 68.6271816,45.6332777 68.0630898,45.516952 C67.9479332,45.4935699 67.8491441,45.4123173 67.7442171,45.4044259 C67.6299374,45.3959499 67.548977,45.4488518 67.4446347,45.4608351 C66.2670564,45.5941127 65.094739,45.2644259 64.0703132,45.2357829 C63.8908559,45.1662213 63.8519833,44.8029228 63.620501,44.7672651 C63.5155741,44.75119 63.4071399,44.8485177 63.283215,44.8420877 C63.1098956,44.8336117 62.8126514,44.6070981 62.5896451,44.4673904 C62.3493946,44.3171608 62.1591232,44.1929436 61.9521921,44.0549896 C61.4293111,43.7063048 60.7667223,43.4301044 60.7713987,42.6301461 C60.611524,42.5798747 60.5191649,42.7505637 60.3777035,42.7803758 C59.9670564,42.4311065 59.5683925,41.9897704 59.140501,41.5618789 C59.0306054,41.4519833 58.7804175,41.2716493 58.7468058,41.1494781 C58.6696451,40.8686013 58.8303967,40.5675574 58.7093946,40.2872651 C58.628142,40.2185804 58.4112735,40.2714823 58.334405,40.2495616 C58.103215,40.0192484 57.9439248,39.6509812 57.7907724,39.2748225 C57.6548643,38.9413361 57.4821294,38.5491023 57.4157829,38.1504384 C57.3298539,37.6307724 57.3202088,37.0213779 57.2661378,36.4257203 C57.2404175,36.1442589 57.2155741,35.851691 57.191023,35.5635073 C57.1512735,35.0961587 57.0437161,34.5881837 57.2848434,34.2888935 C56.9458038,33.8735699 57.3313152,33.3261378 57.3970772,32.7141127 C57.4119833,32.5779123 57.3964927,32.4589562 57.4157829,32.3394154 C57.4841754,31.9214614 57.6940292,31.5192902 57.8658873,31.1209186 C58.2022965,30.3399582 58.4986639,29.5642589 58.9531524,28.8715658 C59.1644676,28.5488935 59.417286,28.1791649 59.6841336,27.934238 C60.0623382,27.5875992 60.5896033,27.3131524 61.0335699,26.9972025 C61.4836743,26.6765762 61.8434656,26.2749896 62.2897704,25.9847599 C62.9716493,25.5413779 63.7341962,25.1935699 64.5017119,24.766263 C64.5978706,24.7127766 64.7364092,24.6449687 64.8577035,24.5602088 C65.1014614,24.3898121 65.2248017,24.2275992 65.4761587,24.4476827 C66.1007516,24.1799582 66.8025052,23.8990814 67.631691,23.7728184 C68.0639666,23.7070564 68.5102714,23.7368685 68.962714,23.6979958 C69.3987891,23.6602923 69.863215,23.5594572 70.2750313,23.5290605 C70.6912317,23.4986639 71.2030063,23.5290605 71.6995825,23.5290605 C72.194405,23.5290605 72.7053027,23.4922338 73.0680167,23.5667641 C73.2007098,23.5939457 73.3082672,23.6839666 73.4243006,23.6979958 C73.5669311,23.7152401 73.6750731,23.6559081 73.8551148,23.6415866 C74.9134447,23.5574113 75.7405846,23.786263 76.7042171,24.0165762 C77.1096033,24.1133194 78.2979958,24.3895198 78.2979958,24.8600835 C78.2979958,25.0863048 78.0115658,25.2315658 77.8665971,25.3098956 C77.6421294,25.43119 77.4635491,25.534071 77.3232568,25.6471816 C77.0578706,25.8614196 76.5437578,26.1835073 76.0109395,26.0785804 C75.9159499,26.0598747 75.7955324,25.9599165 75.6549478,25.8909395 C75.5406681,25.8354071 75.4053445,25.7798747 75.2986639,25.7222965 C74.9438413,25.5314405 74.6527349,25.2046764 74.1926931,25.1412526 C73.8518998,25.0941962 73.5721921,25.1988309 73.1805428,25.1412526 C72.9157411,25.10238 72.671691,24.8653445 72.3744468,24.8787891 C72.2724426,24.8834656 72.1692693,24.974071 72.0555741,24.9913152 C71.8033403,25.0296033 71.4870981,24.9921921 71.1933612,25.0100209 C70.9165762,25.0266806 70.6359916,25.0705219 70.3872651,25.0664301 C69.9286848,25.0585386 69.4861795,24.8887265 69.1129436,24.9726096 C68.8186221,25.0383716 68.671023,25.3005428 68.4003758,25.4224217 C68.0467223,25.5814196 67.4063466,25.5665136 66.957119,25.7222965 C66.7390814,25.7979958 66.568977,25.8786639 66.3573695,26.0034656 C66.1367015,26.1338205 65.7848017,26.5579123 65.6450939,26.1908142" id="Fill-9"></path>
                <path d="M35.4843006,29.2275574 C36.6864301,28.628977 37.8672234,28.1817954 39.2894363,27.8594154 C39.5229645,27.8065136 39.7757829,27.7559499 40.0207098,27.7281837 C40.3749478,27.6878497 40.7993319,27.7159081 41.088977,27.5966597 C41.426263,27.4584134 41.6878497,27.2432985 41.9701879,27.0907307 C42.2867223,26.9194572 42.6137787,26.8341127 43.0197495,26.7534447 C43.8118163,26.5956159 44.6664301,26.4781211 45.5315658,26.5470981 C46.38238,26.6151983 47.0303549,26.9247182 47.6496868,27.2032568 C48.1266806,27.4177871 48.6109812,27.6150731 48.9994154,27.934238 C49.1455532,28.0543633 49.2607098,28.1759499 49.4679332,28.2341127 C49.6786639,28.2934447 50.2097286,28.2560334 50.4990814,28.3092276 C51.1491023,28.428476 51.8514405,28.7271816 52.5797912,28.9276827 C52.9004175,29.0159499 53.2850522,29.1311065 53.6480585,29.2088518 C54.0417537,29.2933194 54.6067223,29.2898121 54.6417954,29.6212526 C54.679499,29.9792902 54.2463466,30.5837161 53.9295198,30.6149896 C53.6831315,30.6389562 53.2695616,30.3697704 52.9547808,30.2587056 C51.945261,29.902714 50.848643,29.7177035 49.8055115,29.433904 C49.1172025,29.2465553 48.5449269,28.9285595 47.9308559,28.6652192 C47.3103549,28.3992484 46.6743633,28.1449687 46.0190814,27.934238 C44.4606681,27.4332777 42.897286,28.180334 41.6890188,28.5903967 C41.3622547,28.7011691 41.0045094,28.8204175 40.6391649,28.8715658 C40.2431315,28.9268058 39.8506054,28.9262213 39.4580793,29.0027975 C38.7063466,29.1495198 38.0232985,29.3447599 37.3399582,29.5274322 C39.3975783,30.0970772 41.2994154,30.5086013 43.394739,31.0835073 C44.8397495,31.479833 46.2876827,31.9629645 47.8373278,32.3581211 C48.1120668,32.4282672 48.3151983,32.4794154 48.6244259,32.5267641 C48.90881,32.5700209 49.2422965,32.6346138 49.2805846,32.8079332 C49.3451775,33.0993319 49.0432568,33.2890188 48.9432985,33.388977 C48.7673486,33.5646347 48.6217954,33.7201253 48.3809603,33.745261 C48.1497704,33.7692276 47.8875992,33.6178288 47.6122756,33.5202088 C45.9173695,32.9204593 44.2025887,32.3534447 42.3825887,31.9270146 C41.3420877,31.6829645 40.2706054,31.4564509 39.1584969,31.2334447 C38.6055115,31.12238 38.03762,31.0624635 37.5086013,30.9332777 C36.9830898,30.805261 36.4809603,30.648309 35.9905219,30.5024635 C33.8975365,29.8796242 32.0488935,29.2956576 30.2733194,28.403048 C29.8471816,28.18881 29.4546555,27.8673069 29.0174113,27.7094781 C28.0485177,27.3593319 26.6397495,27.5817537 25.3996242,27.5031315 C25.0903967,27.4835491 24.7820459,27.4788727 24.4810021,27.4470146 C24.1974948,27.4169102 23.923048,27.3160752 23.6562004,27.2970772 C22.9646764,27.2470981 22.0779123,27.5732777 21.4629645,27.7281837 C20.0048017,28.0952818 18.7132359,28.4468894 17.3953653,28.908977 C16.7508977,29.1351983 16.0970772,29.3199165 15.5210021,29.6589562 C15.2053445,29.8442589 14.9525261,29.9708142 14.5836743,30.0336534 C14.2078079,30.0976618 13.8018372,30.1274739 13.3651775,30.1274739 C11.6816701,30.1274739 9.9040501,30.1736534 8.69782881,30.7085177 C8.10392484,30.971858 7.49686848,31.3450939 6.86087683,31.4772025 C6.54843424,31.5417954 6.2605428,31.5160752 5.99837161,31.5707307 C5.47987474,31.6791649 5.08793319,31.9313987 4.64893528,32.1143633 C3.97494781,32.3952401 3.3097286,32.5685595 2.56822547,32.8640501 C2.17832985,33.019833 1.65018789,33.4246347 1.21849687,33.388977 C0.981461378,33.3693946 0.474947808,33.0098956 0.524926931,32.6767015 C0.553862213,32.4837996 0.906931106,32.3592902 1.18108559,32.245595 C2.5594572,31.6730271 3.64613779,31.1647599 5.06104384,30.6898121 C5.63273486,30.4977871 6.25791232,30.3896451 6.76705637,30.2210021 C7.27941545,30.0514823 7.81077244,29.8468894 8.34154489,29.6212526 C8.8582881,29.4020459 9.39519833,29.1764092 9.95373695,29.0589144 C10.8580376,28.868643 11.9888518,28.9276827 13.0840084,28.9276827 C13.4563674,28.9276827 13.8979958,28.959833 14.2273904,28.908977 C14.6161169,28.8490605 14.9604175,28.6625887 15.2959499,28.4965762 C15.6279749,28.3323173 15.9629228,28.1557829 16.2706889,27.9906472 C16.9250939,27.6387474 17.5876827,27.4093111 18.5387474,27.2970772 C19.8706472,27.1395407 20.9295616,26.6964509 22.1378288,26.4532777 C22.563382,26.3679332 23.0362839,26.3077244 23.5249687,26.2846347 C24.0425887,26.2603758 24.5341962,26.3597495 25.0620459,26.3597495 C26.5283925,26.3597495 28.3919415,26.1551566 29.5610438,26.5848017 C29.8036326,26.6739457 30.0321921,26.8405428 30.2733194,26.959499 C31.928476,27.7781628 33.6803758,28.4898539 35.4843006,29.2275574" id="Fill-10"></path>
                <path d="M87.7452192,39.1248852 C87.3941962,39.0699374 87.0878914,38.8270564 86.7517745,38.9375365 C86.3022547,39.0851357 85.7191649,39.1856785 85.3646347,39.3873486 C85.0460543,39.5688518 84.8043424,39.8810021 84.539833,40.0999165 C84.4162004,40.4804593 84.5591232,40.6496868 84.708476,40.8870146 C84.7841754,41.0068476 84.8794572,41.1778288 84.9712317,41.2432985 C85.062714,41.308476 85.2521086,41.3093528 85.4210438,41.3745303 C85.4958664,41.4031733 85.5630898,41.4689353 85.6270981,41.4867641 C85.9006681,41.5633403 86.1543633,41.4519833 86.4518998,41.4306472 C86.9063883,41.3982046 87.3781211,41.3999582 87.651691,41.2807098 C87.8144885,41.2096868 87.9319833,41.0521503 88.0640919,40.9621294 C88.237119,40.8434656 88.3949478,40.7800418 88.513904,40.6806681 C88.7278497,40.2869729 88.5939875,39.6609186 88.6264301,39.0874739 C88.3055115,39.1073486 88.0395407,39.1710647 87.7452192,39.1248852 L87.7452192,39.1248852 Z M88.9637161,42.5927349 C88.7085595,42.5296033 88.6498121,42.1630898 88.4200835,42.1242171 C88.2648852,42.0979123 87.8063048,42.3440084 87.6329854,42.3866806 C87.3100209,42.4658873 86.9870564,42.4886848 86.7330689,42.536618 C86.1736534,42.6424217 85.4453027,42.7949896 84.8397077,42.7429645 C84.3855115,42.7037996 84.003215,42.4848852 83.6212109,42.2928601 C83.2199165,42.09119 82.8922756,41.8822129 82.7215866,41.5431733 C82.5801253,41.2620042 82.4760752,40.7885177 82.5716493,40.3997912 C82.6365344,40.1364509 82.8387891,39.9172443 83.0217537,39.6875157 C83.193904,39.4709395 83.3727766,39.2263048 83.5650939,39.0874739 C83.865261,38.87119 84.2668476,38.7186221 84.6523591,38.562547 C85.7530689,38.1177035 87.0200835,37.6965344 88.6074322,37.7380376 C88.7486013,37.5810856 88.6796242,37.1946973 88.5700209,37.0631733 C88.6176618,36.9982881 88.7509395,37.0193319 88.7763674,36.9319415 C88.7170355,36.8536117 88.5355324,36.8977453 88.4387891,36.8568267 C88.3487683,36.7741127 88.3335699,36.6288518 88.2701461,36.556952 C87.980501,36.2275574 87.4415449,36.2921503 86.9581211,36.1819624 C86.8660543,36.1612109 86.7599582,36.0992484 86.676952,36.0884342 C86.2265553,36.02881 85.6466806,36.3865553 85.3833403,36.5756576 C84.9849687,36.86238 84.6053027,37.2885177 83.9400835,37.0444676 C83.7799165,36.985428 83.654238,36.8544885 83.508977,36.725595 C83.328643,36.5657203 82.9758664,36.1948225 83.3029228,35.863382 C83.4376618,35.7265971 83.8465553,35.576952 84.0713152,35.526096 C85.1425052,35.283215 86.248476,34.9479749 87.3892276,34.888643 C87.8919415,34.8626305 88.394071,35.0321503 88.8701879,35.225929 C89.2334864,35.3741127 89.7777035,35.6108559 89.9761587,35.863382 C90.0872234,36.0051357 90.151524,36.2015449 90.2009186,36.3693111 C90.2558664,36.5566597 90.2368685,36.7650522 90.294739,37.0067641 C90.3242589,37.1312735 90.4286013,37.2224635 90.463382,37.3253445 C90.576785,37.66 90.5756159,38.2182463 90.5756159,38.694071 C90.5756159,39.2806681 90.6250104,39.8570355 90.5756159,40.3246764 C90.5425887,40.6394572 90.4841336,40.8168685 90.5946138,41.1120668 C90.640501,41.2345303 90.8000835,41.4134029 90.8006681,41.5431733 C90.8024217,41.8497704 90.3213361,42.1475992 90.0883925,42.2741545 C89.7411691,42.4629645 89.4474322,42.5944885 88.9637161,42.5927349 L88.9637161,42.5927349 Z" id="Fill-11"></path>
                <path d="M95.9368267,40.5684342 C96.1940292,40.628643 96.4293111,40.7782881 96.6491023,40.8118998 C97.0094781,40.8671399 97.3485177,40.7566597 97.6802505,40.8118998 C97.8135282,40.834405 97.8889353,40.982881 98.0362422,40.9808351 C98.2060543,40.9784969 98.4346138,40.7414614 98.5611691,40.6435491 C98.7724843,40.4792902 98.8809186,40.3907307 99.0296868,40.2495616 C99.2705219,40.0210021 99.7799582,39.6638413 99.8731942,39.3499374 C99.9170355,39.203215 99.9038831,38.9845929 99.9293111,38.8063048 C99.9594154,38.5979123 99.9991649,38.4152401 99.9670146,38.2626722 C99.9149896,38.0139457 99.6992902,37.7564509 99.5359081,37.531691 C99.3751566,37.3104384 99.1907307,37.0418372 98.9735699,36.9319415 C98.8341545,36.8615031 98.6409603,36.8638413 98.4673486,36.7820042 C98.2364509,36.6729854 98.1248017,36.4526096 97.9053027,36.4070146 C97.6869729,36.3617119 97.3417954,36.4578706 97.0240919,36.4257203 C96.579833,36.3807098 95.9473486,36.3000418 95.5057203,36.4070146 C95.1318998,36.4973278 94.9305219,36.754238 94.6435073,37.0067641 C94.5809603,37.5661795 94.7192067,38.2483507 94.6622129,38.8437161 C94.602881,39.4648017 94.5289353,40.3237996 95.0746138,40.4746138 C95.3917328,40.4705219 95.6530271,40.5020877 95.9368267,40.5684342 L95.9368267,40.5684342 Z M94.6622129,42.0303967 C94.5409186,42.3559916 94.6172025,42.7359499 94.5122756,43.0802505 C94.483048,43.1764092 94.3284342,43.2781211 94.3249269,43.3801253 C94.3211273,43.4815449 94.4669729,43.5680585 94.5122756,43.68 C94.5941127,43.8822547 94.6417537,44.2674739 94.6622129,44.5986221 C94.6727349,44.7684342 94.6958246,45.0352818 94.6622129,45.179666 C94.6318163,45.3097286 94.5505637,45.2997912 94.474572,45.4234238 C94.5306889,45.6078497 94.7081002,45.6429228 94.7557411,45.7984134 C94.8136117,45.9866388 94.7779541,46.2879749 94.7934447,46.5293946 C94.8092276,46.7746138 94.8407933,47.008142 94.8495616,47.2413779 C94.865929,47.6765762 94.879666,48.3692693 94.7373278,48.6662213 C94.5955741,48.9614196 93.7938622,49.2601253 93.4063048,49.3036743 C93.022547,49.3463466 92.3254697,49.1610438 92.3377453,48.8912735 C92.3438831,48.7585804 92.6954906,48.6618372 92.8439666,48.5536952 C93.0020877,48.4385386 93.2058038,48.1898121 93.1812526,47.8975365 C93.162547,47.6739457 92.8881002,47.4734447 92.8629645,47.1478497 C92.8422129,46.8824635 93.0476827,46.7015449 92.993904,46.4168685 C92.9620459,46.2470564 92.6873069,46.1725261 92.6753236,46.0231733 C92.6639248,45.8843424 92.9091441,45.8396242 92.9190814,45.6858873 C92.9336952,45.4558664 92.6449269,45.4757411 92.6192067,45.2357829 C92.8989144,45.2343215 93.1949896,45.2498121 93.3875992,45.1609603 C93.33119,45.0247599 93.1721921,44.9604593 93.1251357,44.8610856 C93.0520668,44.7067641 93.0432985,44.503048 93.0126096,44.317453 C92.9532777,43.9562004 92.8799165,43.5674739 92.993904,43.1927766 C93.0359916,43.0530689 93.1780376,42.8999165 93.1812526,42.7616701 C93.1844676,42.6281002 93.0330689,42.4939457 92.9749061,42.348977 C92.7536534,41.7945303 92.865595,40.7917328 92.9003758,40.006096 C92.9068058,39.8561587 92.8869311,39.6840084 92.9003758,39.5562839 C92.9103132,39.4592484 92.9690605,39.3478914 92.9564927,39.2561169 C92.934572,39.0965344 92.6633403,38.9714405 92.63762,38.7314823 C92.6078079,38.45119 92.7004593,38.0873069 92.7127349,37.7380376 C92.7253027,37.3782463 92.7691441,36.9395407 92.6940292,36.7068894 C92.6408351,36.5426305 92.3801253,36.4274739 92.3564509,36.2757829 C92.2898121,35.8475992 92.9915658,35.5643841 93.2750731,35.3948643 C93.4782046,35.2732777 93.7222547,34.9853862 94.1185804,35.0949896 C94.3380793,35.1554906 94.3836743,35.4463048 94.606096,35.526096 C94.7764927,35.4430898 94.9039248,35.4530271 95.0559081,35.3948643 C95.2900209,35.3045511 95.4338205,35.0567015 95.636952,35.0198747 C95.8649269,34.9786639 96.122714,35.0990814 96.3866388,35.0759916 C96.5663883,35.060501 96.7513987,34.9780793 96.948977,34.9634656 C97.4312317,34.9281002 98.0809603,34.942714 98.5424635,35.0011691 C98.6918163,35.020167 98.8882255,35.0681002 98.9922756,35.1136952 C99.0977871,35.1595825 99.1749478,35.266263 99.2734447,35.3010438 C99.4239666,35.354238 99.5832568,35.3361169 99.7232568,35.3948643 C99.9038831,35.4702714 100.090063,35.60238 100.248184,35.7134447 C100.40952,35.8265553 100.548935,35.9954906 100.735699,36.0697286 C100.818706,36.1027557 100.924509,36.0922338 100.998163,36.1258455 C101.228476,36.2301879 101.316159,36.5853027 101.391566,36.7820042 C101.583883,37.280334 101.74785,37.8225052 101.672735,38.562547 C101.61048,39.1783716 101.489186,39.62 101.185511,39.9312735 C101.072693,40.0467223 100.911065,40.1773695 100.773111,40.2685595 C100.613528,40.3737787 100.395491,40.4050522 100.285595,40.5307307 C100.221879,40.6040919 100.204342,40.7443841 100.154656,40.7934864 C100.038038,40.9074739 99.7837578,40.9057203 99.611023,40.9995407 C99.4754071,41.0731942 99.3836326,41.2526514 99.2734447,41.337119 C99.0869729,41.4800418 98.7672234,41.5645094 98.5047599,41.674405 C98.2487265,41.7816701 97.9979541,41.9412526 97.7550731,42.0303967 C97.3160752,42.1914405 96.7335699,42.1242171 96.1992902,42.1242171 C95.6767015,42.1242171 95.1494363,42.0713152 94.6622129,42.0303967 L94.6622129,42.0303967 Z" id="Fill-12"></path>
                <path d="M0,39.9683925 L0,39.6875157 C0.197578288,39.2260125 0.11223382,38.5239666 0.131231733,37.9627975 C0.152275574,37.9587056 0.16045929,37.9420459 0.168935282,37.9253862 C0.650605428,37.9607516 1.11269311,38.1410856 1.61219207,38.225261 C2.13302714,38.3132359 2.69039666,38.3187891 3.26179541,38.3187891 C4.38822547,38.3187891 5.5725261,38.3208351 6.71064718,38.2813779 C8.96321503,38.2036326 11.3549061,38.2255532 13.6276409,38.225261 C15.3810021,38.225261 17.1276409,38.2144468 18.8012109,38.2813779 C19.3582881,38.3038831 19.9045511,38.3512317 20.4508142,38.3751983 C22.7191649,38.4748643 25.0363257,38.4503132 27.3491023,38.4503132 C31.9164927,38.4500209 36.654572,38.4041336 41.2015031,38.3564927 C42.2934447,38.3450939 43.4549478,38.3000835 44.6319415,38.3000835 C45.7835073,38.3000835 46.9543633,38.3138205 48.0807933,38.2626722 C50.0399165,38.1738205 52.0960752,38.2691023 53.9669311,38.056618 C54.240501,38.0253445 54.5918163,37.9522756 54.716618,38.03762 C54.9060125,38.1673904 54.9244259,38.9883925 54.8665553,39.2 C54.6786221,39.8886013 53.7418789,39.7106054 52.8609603,39.7436326 C51.1365344,39.8082255 49.4124008,39.8561587 47.7622129,39.8561587 C43.1229228,39.8561587 38.7016701,39.9870981 34.0220459,39.9870981 C31.7636326,39.9873904 29.3316075,40.006096 27.1053445,40.006096 C22.502881,40.0058038 17.9647182,40.1002088 13.3277662,40.0999165 C9.36713987,40.0996242 5.3977453,40.343382 1.44325678,40.343382 C0.806680585,40.343382 0.0850521921,40.32 0,39.9683925" id="Fill-13"></path>
                <path d="M18.5387474,42.1993319 L19.251023,42.1993319 L19.251023,47.0353236 L18.5200418,47.0353236 L18.5200418,42.2554489 C18.5185804,42.2288518 18.5168267,42.2022547 18.5387474,42.1993319" id="Fill-14"></path>
                <path d="M19.8697704,42.1993319 L20.5633403,42.1993319 L20.5633403,47.0353236 L19.8510647,47.0353236 L19.8510647,42.2554489 C19.8493111,42.2288518 19.8478497,42.2022547 19.8697704,42.1993319" id="Fill-15"></path>
                <path d="M34.3035073,42.6491441 C34.2634656,42.8779958 34.1868894,43.0700209 34.1535699,43.3050104 C33.5316075,43.000167 32.7220042,42.9875992 32.2602088,43.4362422 C31.6265553,44.0523591 31.6864718,45.5026305 32.2602088,46.0605846 C32.5419624,46.334739 33.1604175,46.505428 33.7034656,46.3233403 L33.7034656,45.1983716 C33.4529854,45.1863883 33.154572,45.2226305 32.9350731,45.179666 C32.9467641,44.960167 32.9111065,44.6933194 32.9537787,44.5048017 L34.3970355,44.5048017 L34.3970355,46.8105637 C33.5126096,47.2577453 32.2987891,47.1490188 31.6978706,46.5481002 C30.8265971,45.6768267 30.9221712,43.7720668 31.7539875,42.9490188 C32.2695616,42.4389979 33.5228392,42.1335699 34.3035073,42.6491441" id="Fill-16"></path>
                <path d="M18.051524,42.4427975 L18.051524,43.1176618 C17.5701461,43.1612109 17.0081002,43.1240919 16.4954489,43.1363674 L16.4954489,44.2797495 L17.9577035,44.2797495 L17.9577035,44.9733194 L16.4954489,44.9733194 L16.4954489,46.3417537 L18.1266388,46.3417537 L18.1266388,47.0353236 L15.7831733,47.0353236 C15.7957411,45.5043841 15.7583299,43.9237578 15.8018789,42.4240919 C16.5457203,42.4366597 17.3389562,42.3992484 18.051524,42.4427975" id="Fill-17"></path>
                <path d="M21.4255532,42.4427975 C22.0548225,42.2957829 22.1126931,43.3845094 21.5003758,43.3614196 C21.0502714,43.3441754 20.9456367,42.5550313 21.4255532,42.4427975" id="Fill-18"></path>
                <path d="M22.8126931,42.4427975 C23.4337787,42.3010438 23.4986639,43.35762 22.9065136,43.3614196 C22.6256367,43.3631733 22.3716493,43.0866806 22.5128184,42.6865553 C22.5481837,42.5863048 22.6247599,42.485762 22.8126931,42.4427975" id="Fill-19"></path>
                <path d="M35.9154071,44.9920251 L36.7402088,44.9920251 C36.594071,44.5071399 36.4616701,44.0085177 36.3091023,43.5300626 C36.2108977,44.0503132 36.0250104,44.4831733 35.9154071,44.9920251 L35.9154071,44.9920251 Z M35.9718163,42.4240919 L36.7027975,42.4240919 C37.1736534,43.9404175 37.5989144,45.5020459 38.0712317,47.016618 C37.8523173,47.060167 37.5524426,47.023048 37.302547,47.0353236 C37.1850522,46.565929 37.0412526,46.1219624 36.9088518,45.6671816 L35.7467641,45.6671816 C35.6009186,46.1085177 35.4746555,46.5694363 35.3530689,47.0353236 L34.603382,47.0353236 C35.0663466,45.505261 35.4921921,43.9377871 35.9718163,42.4240919 L35.9718163,42.4240919 Z" id="Fill-20"></path>
                <path d="M24.4435908,45.6858873 C24.2208768,45.9851775 24.3705219,46.5440084 24.8369937,46.4542797 C25.2093528,46.3829645 25.3218789,45.9162004 25.2683925,45.4234238 C25.0006681,45.442714 24.6008351,45.4739875 24.4435908,45.6858873 L24.4435908,45.6858873 Z M26.036785,47.0353236 L25.3619207,47.0353236 C25.3370772,46.9792067 25.3429228,46.8921086 25.343215,46.8105637 C25.1517745,46.9365344 24.923215,47.1104384 24.5748225,47.1104384 C23.9513987,47.1104384 23.5702714,46.5863883 23.6374948,45.9293528 C23.7164092,45.159499 24.4678497,44.816952 25.2683925,44.8046764 C25.2301044,44.619666 25.2315658,44.4752818 25.1371608,44.3735699 C24.8413779,44.0552818 24.199833,44.3911065 23.9747808,44.5235073 C23.9937787,44.3101461 23.7912317,44.154071 23.8248434,43.9798747 C23.8637161,43.7787891 24.4336534,43.6262213 24.6496451,43.6051775 C26.4594154,43.4283507 25.8304384,45.6236326 26.036785,47.0353236 L26.036785,47.0353236 Z" id="Fill-21"></path>
                <path d="M21.2007933,43.6612944 L21.8753653,43.6612944 C21.9192067,44.7485595 21.8817954,45.916785 21.894071,47.0353236 L21.1817954,47.0353236 C21.1943633,45.916785 21.156952,44.7485595 21.2007933,43.6612944" id="Fill-22"></path>
                <path d="M22.5689353,43.6612944 L23.2437996,43.6612944 C23.2777035,44.2651357 23.2625052,45.0621712 23.2625052,45.8358246 C23.2625052,47.2665136 23.28881,48.3891441 21.894071,48.4037578 C21.8370772,48.217286 21.8519833,47.9586221 21.8005428,47.7663048 C21.9688935,47.6958664 22.1407516,47.7186639 22.2877662,47.6163674 C22.6577871,47.3597495 22.5502296,46.4121921 22.5502296,45.7984134 L22.5502296,43.7174113 C22.5487683,43.6911065 22.5473069,43.6645094 22.5689353,43.6612944" id="Fill-23"></path>
                <path d="M26.1306054,43.6612944 L26.8802923,43.6612944 C27.1155741,44.3820459 27.345595,45.1080585 27.5738622,45.8358246 C27.7939457,45.1185804 27.9973695,44.3846764 28.2113152,43.6612944 L28.9610021,43.6612944 C28.6719415,44.5430898 28.379666,45.5230898 28.0613779,46.4352818 C27.7553653,47.3118163 27.4338622,48.2815866 26.4491858,48.4975783 C26.4038831,48.2678497 26.3465971,48.0501044 26.2805428,47.8414196 C26.6265971,47.7008351 27.1602923,47.2612526 27.180167,46.8479749 C27.1895198,46.6556576 27.0237996,46.2938205 26.9367015,46.0418789 C26.6885595,45.3263883 26.2928184,44.2791649 26.1306054,43.6612944" id="Fill-24"></path>
                <path d="M29.7296868,45.9670564 C29.6408351,46.603048 29.3964927,47.245762 29.1483507,47.7853027 C28.9674322,47.822714 28.7485177,47.822714 28.5673069,47.8601253 C28.7368267,47.2986639 28.8706889,46.7015449 28.9610021,46.0605846 C29.2258038,46.0380793 29.4897286,46.014405 29.7296868,45.9670564" id="Fill-25"></path>
                <path d="M101.204217,27.9529436 C100.986472,27.8649687 100.761712,27.7407516 100.510647,27.8404175 C100.472651,27.8649687 100.484927,27.9397912 100.435825,27.9529436 C100.408351,27.9631733 100.338789,27.931023 100.342004,27.9719415 C100.612067,28.145261 101.025637,28.1750731 101.298038,28.3466388 C101.326096,28.2247599 101.377829,28.1265553 101.560209,28.1592902 C101.524259,28.033904 101.337787,28.0070146 101.204217,27.9529436 L101.204217,27.9529436 Z M99.7045511,27.7468894 C99.7820042,27.7205846 99.8118163,27.8377871 99.8547808,27.7843006 C99.7977871,27.7848852 99.8363674,27.6898956 99.779666,27.6904802 C99.7855115,27.7404593 99.6744468,27.6729436 99.7045511,27.7468894 L99.7045511,27.7468894 Z M101.335449,27.6717745 C101.258288,27.6738205 101.260334,27.596952 101.166806,27.6156576 C101.177912,27.6679749 101.301253,27.7048017 101.335449,27.6717745 L101.335449,27.6717745 Z M99.948309,27.5779541 C99.9816284,27.5779541 100.057328,27.6285177 100.079541,27.5779541 C100.038914,27.5659708 99.9629228,27.5078079 99.948309,27.5779541 L99.948309,27.5779541 Z M100.135658,27.3906054 C100.167516,27.3225052 100.195574,27.2506054 100.21048,27.1658455 C100.079833,27.1003758 99.9559081,27.3949896 100.135658,27.3906054 L100.135658,27.3906054 Z M100.548351,27.2032568 C100.575825,27.2129019 100.595407,27.231023 100.622881,27.2406681 C100.647432,27.1787056 100.635449,27.0837161 100.622881,27.0346138 C100.600668,27.0933612 100.560042,27.1336952 100.548351,27.2032568 L100.548351,27.2032568 Z M100.267182,27.0720251 C100.31833,26.9098121 100.557996,26.7402923 100.529353,26.6219207 C100.483758,26.7902714 100.209019,26.9247182 100.267182,27.0720251 L100.267182,27.0720251 Z M101.279332,26.4909812 C100.95666,26.537453 100.939708,26.8241754 101.016576,27.1658455 C101.111566,27.5867223 101.560793,27.6451775 101.879081,27.7843006 C101.682965,27.3491023 101.502338,26.8987056 101.279332,26.4909812 L101.279332,26.4909812 Z M101.935198,29.602547 C102.919875,29.6265136 103.535992,28.7800835 103.490981,27.9155324 C103.439833,26.9299791 102.565052,26.193737 101.466681,26.434572 C101.61428,26.760167 101.800752,27.2389144 101.991608,27.5966597 C102.065261,27.7354906 102.195031,27.8117745 102.197662,27.9529436 C102.201461,28.1627975 101.971733,28.3329019 101.729144,28.1592902 C101.59499,28.2364509 101.633278,28.3852192 101.485386,28.4217537 C101.186388,28.4951148 100.641294,28.0844676 100.379415,28.102881 C100.474405,28.9583716 101.046681,29.5809186 101.935198,29.602547 L101.935198,29.602547 Z M100.998163,26.3036326 C101.071524,26.308309 101.067724,26.2358246 101.147808,26.2472234 C101.118873,26.1265136 101.068894,26.0265553 100.998163,25.9473486 C100.962213,26.0715658 101.001086,26.1642171 100.998163,26.3036326 L100.998163,26.3036326 Z M100.060835,25.8722338 C100.009395,26.0394154 100.088017,26.3913152 100.060835,26.5848017 C100.103507,26.5792484 100.131273,26.5891858 100.135658,26.6219207 C100.140919,26.6549478 100.083048,26.7157411 100.135658,26.734739 C100.196743,26.5435908 100.428225,26.4789979 100.454238,26.2846347 C100.465344,26.2025052 100.391399,26.0736117 100.36071,25.9473486 C100.282965,25.6290605 100.190605,25.4472651 100.135658,25.1973695 C100.085678,25.1850939 100.064342,25.1438831 100.023424,25.122547 C100.007933,25.2745303 99.9611691,25.71762 100.060835,25.8722338 L100.060835,25.8722338 Z M100.248184,24.9726096 C100.235908,24.903048 100.113445,24.8454697 100.079541,24.8600835 C100.158455,24.8749896 100.166639,24.960334 100.248184,24.9726096 L100.248184,24.9726096 Z M96.7990397,24.3538622 C95.8918163,24.3825052 95.2432568,25.0827975 95.2432568,25.9660543 C95.2432568,26.8864301 96.0017119,27.5779541 96.8554489,27.5779541 C98.2501879,27.5779541 98.9788309,25.8131942 98.0175365,24.8787891 C97.8772443,25.0521086 97.6808351,25.2818372 97.4364927,25.5536534 C97.2517745,25.7588309 96.9863883,26.1437578 96.7616284,26.1346973 C96.4822129,26.1235908 96.5421294,25.7453862 96.8180376,25.7974113 C97.1284342,25.4083925 97.517453,25.0974113 97.7737787,24.6540292 C97.5043006,24.483048 97.214071,24.3410021 96.7990397,24.3538622 L96.7990397,24.3538622 Z M98.7298121,25.8722338 C98.8037578,27.0392902 97.6267641,28.0277662 96.5178706,27.8217119 C97.7407516,28.5924426 99.3356994,29.0904802 100.847933,29.5087265 C100.413027,29.1907307 100.084802,28.6774948 100.060835,28.0093528 C99.639666,27.8141127 98.8642589,27.6361169 99.2173278,26.959499 C99.0726514,26.8978288 98.8692276,26.8951983 98.7675157,26.7908559 C98.8297704,26.6590397 98.5722756,26.5044259 98.7485177,26.3784551 C98.9022547,26.4114823 99.0787891,26.5032568 99.2734447,26.434572 C99.0691441,25.7018372 98.9650939,24.8685595 98.617286,24.2790397 C98.5316493,24.4494363 98.3147808,24.4888935 98.2235908,24.6540292 C98.4971608,25.0085595 98.6988309,25.385595 98.7298121,25.8722338 L98.7298121,25.8722338 Z M99.5736117,26.3597495 C99.6580793,25.6185386 99.3339457,25.1245929 99.254739,24.4850939 C99.125261,24.4333612 99.0700209,24.3076827 98.9548643,24.2413361 C99.1653027,24.9430898 99.3470981,25.6734864 99.5736117,26.3597495 L99.5736117,26.3597495 Z M98.0362422,24.2977453 C98.1069729,24.305929 98.1218789,24.2582881 98.1487683,24.2226305 C98.1090188,24.1936952 98.0651775,24.1688518 98.0175365,24.1478079 C98.0198747,24.2018789 98.0073069,24.2705637 98.0362422,24.2977453 L98.0362422,24.2977453 Z M101.616618,24.1291023 C101.530397,24.3173278 101.422547,24.5426722 101.222923,24.7849687 C101.020376,25.031357 100.584593,25.4007933 100.998163,25.5536534 C101.338664,25.1880167 101.595574,24.7390814 101.972902,24.4102714 C101.848977,24.3217119 101.797537,24.1606681 101.616618,24.1291023 L101.616618,24.1291023 Z M99.8357829,24.2977453 C99.8714405,24.4620042 99.9751983,24.5581628 99.9857203,24.7475574 C100.10643,24.7770772 100.192359,24.8410856 100.285595,24.8977871 C100.365678,24.7586639 100.418873,24.5932359 100.510647,24.4663883 C100.48785,24.2913152 100.678706,24.1375783 100.622881,24.0539875 C100.415365,24.1267641 100.061712,24.1840501 99.8357829,24.2977453 L99.8357829,24.2977453 Z M114.382046,24.2413361 C114.316284,24.3895198 114.441962,24.6519833 114.26952,24.7475574 C114.073695,24.7966597 113.886054,24.6291858 113.632067,24.6727349 C113.514572,24.6929019 113.379541,24.848977 113.238664,24.8977871 C113.101294,24.9451357 112.933528,24.9278914 112.751148,24.953904 C112.448643,24.9968685 112.249896,25.2078914 112.09499,25.2350731 C111.944468,25.2613779 111.852401,25.1812944 111.701587,25.1599582 C111.45023,25.1248852 111.125219,25.1456367 111.02643,25.29119 C110.991357,25.343215 110.996618,25.4314823 110.970313,25.5349478 C110.936409,25.6705637 110.792902,25.9119833 110.820376,26.0411691 C110.856326,26.2095198 111.147724,26.2907724 111.326597,26.1908142 C111.500209,26.1808768 111.54142,26.365595 111.682589,26.4158664 C111.875783,26.4848434 111.962589,26.3515658 112.169812,26.3223382 C112.24785,26.3112317 112.323257,26.3325678 112.394864,26.3223382 C112.704969,26.2770355 112.978831,26.0549061 113.182255,26.0411691 C113.389186,26.3343215 113.532109,26.1177453 113.744593,25.9847599 C113.983674,25.8354071 114.336159,25.7351566 114.569395,25.6661795 C114.788309,25.5115658 114.825136,25.245595 115.075616,25.1038413 C115.269102,24.994238 115.568392,25.0562004 115.787891,24.9726096 C115.980793,24.8989562 116.100919,24.7469729 116.125177,24.5037996 C115.764509,24.4573278 115.366722,24.5140292 115.375491,24.0726931 C115.056618,24.0352818 114.504802,23.9645511 114.382046,24.2413361 L114.382046,24.2413361 Z M98.4673486,23.8292276 C98.4945303,23.8645929 98.5094363,23.9122338 98.5798747,23.9040501 C98.6658038,23.833904 98.6897704,23.7017954 98.8049269,23.6605846 C98.7248434,23.6594154 98.7365344,23.5661795 98.7111065,23.5103549 C98.5369102,23.5235073 98.522881,23.697119 98.4673486,23.8292276 L98.4673486,23.8292276 Z M98.4863466,24.0352818 C98.4723173,23.9777035 98.5377871,23.9993319 98.5237578,23.9417537 C98.4480585,23.8897286 98.4226305,23.9201253 98.3361169,23.9417537 C98.1534447,23.8897286 98.1832568,23.5948225 98.2425887,23.4916493 C98.0876827,23.6857203 98.1139875,24.1080585 98.4863466,24.0352818 L98.4863466,24.0352818 Z M97.7927766,23.4916493 C97.588476,23.6450939 97.7918998,23.9870564 97.979833,24.0352818 C98.0727766,23.805261 97.9175783,23.6152818 97.7927766,23.4916493 L97.7927766,23.4916493 Z M97.8675992,23.4355324 C97.9611273,23.6263883 98.1481837,23.8043841 98.0362422,24.0913987 C98.0932359,24.1586221 98.3723591,24.2325678 98.4112317,24.0913987 C98.0412109,24.1185804 98.0365344,23.6418789 98.2048852,23.4355324 C98.0762839,23.4089353 97.9655115,23.3496033 97.8675992,23.4355324 L97.8675992,23.4355324 Z M98.0549478,23.3417119 C98.1651357,23.3379123 98.2446347,23.4434238 98.2987056,23.3417119 C98.3004593,23.2215866 98.0900209,23.2812109 98.0549478,23.3417119 L98.0549478,23.3417119 Z M98.5798747,23.0979541 C98.631023,23.2408768 98.7830063,23.2820877 98.9171608,23.3417119 C99.1629645,23.277119 99.440334,23.1239666 99.648142,22.9293111 C99.8188309,22.7697286 100.045052,22.5578288 100.023424,22.3108559 C99.7071816,22.7381628 98.8356159,22.6101461 98.5798747,23.0979541 L98.5798747,23.0979541 Z M100.398121,22.816785 C100.34142,22.9579541 100.071065,23.0871399 99.9293111,23.1730689 C99.7378706,23.2893946 99.543215,23.3756159 99.3859708,23.454238 C99.4303967,23.5381211 99.3926931,23.6298956 99.3108559,23.6415866 C99.2448017,23.6518163 99.2649687,23.5752401 99.1983299,23.5854697 C99.1729019,23.6974113 99.0431315,23.7050104 98.9735699,23.7728184 C98.9294363,23.9288935 99.0478079,23.9534447 99.1235073,24.0352818 C99.1176618,23.9481837 99.1816701,23.9309395 99.1983299,23.8666388 C99.7343633,23.5156159 100.163132,23.0567432 100.885637,22.8918998 C100.859916,22.8068476 100.699165,22.7723591 100.773111,22.648142 C100.669645,22.600501 100.584885,22.4596242 100.622881,22.3295616 C100.574363,22.3093946 100.553319,22.2617537 100.491942,22.2544468 C100.391691,22.4479332 100.465637,22.6490188 100.398121,22.816785 L100.398121,22.816785 Z M118.262004,15.9562004 C118.015908,15.91762 117.987557,16.1914823 117.980835,16.5375365 C118.011524,16.6068058 118.118497,16.599499 118.112067,16.7061795 C117.978205,16.9204175 117.789395,17.196618 117.906013,17.4371608 C117.997495,17.6253862 118.228392,17.8434238 118.243591,18.0743215 C118.466013,18.231858 118.672944,18.2476409 118.862046,18.4118998 C119.164843,18.6746555 119.244342,19.2144885 119.780376,19.142881 C119.730397,18.974238 119.616117,18.8698956 119.630731,18.6366597 C119.821879,18.7275574 119.912192,19.0160334 120.192777,18.9552401 C120.279582,18.9362422 120.212359,18.7626305 120.286597,18.7304802 C120.502004,18.6927766 120.528601,18.8912317 120.717704,18.8804175 C120.986889,18.8649269 121.696242,17.8822965 121.017578,17.9807933 C120.915282,17.9018789 120.954447,17.6815031 120.867641,17.5870981 C120.775866,17.5777453 120.743716,17.6306472 120.68,17.6245094 C120.4681,17.6040501 120.408184,17.2425052 120.249186,17.2498121 C120.064175,17.2579958 120.091065,17.5838831 119.930313,17.6619207 C119.719875,17.4602505 119.743549,17.0241754 119.649144,16.7061795 C119.496284,16.734238 119.577244,16.9964092 119.424384,17.0247599 C119.199332,16.9625052 119.172735,16.7015031 119.086806,16.499833 C118.907933,16.5027557 118.726722,16.6936117 118.580877,16.5559499 C118.625303,16.3092693 118.437954,15.9836743 118.262004,15.9562004 L118.262004,15.9562004 Z M116.050355,9.43290188 C115.704008,9.25899791 115.41261,9.08655532 115.169144,9.03920668 C115.150438,9.03920668 115.146931,9.05440501 115.131733,9.05820459 C115.136117,9.0725261 115.132317,9.09503132 115.150438,9.09561587 C115.27524,9.36509395 115.625094,9.61060543 115.862714,9.82659708 C116.124885,10.0648017 116.357829,10.3921503 116.724927,10.3702296 C116.997035,9.80526096 116.449896,9.63398747 116.050355,9.43290188 L116.050355,9.43290188 Z M116.987683,0.0417954071 L117.249854,0.0417954071 L117.249854,0.0605010438 C117.600292,0.14993737 118.018831,0.357453027 118.28071,0.0417954071 L118.468351,0.0417954071 L118.468351,0.0605010438 C118.62881,0.169227557 118.993862,0.336993737 119.011983,0.547724426 C119.02309,0.678371608 118.843925,0.747056367 118.918163,0.866597077 C119.220668,0.968893528 119.2838,0.669895616 119.349562,0.472901879 C119.915992,0.713444676 120.352067,1.18050104 120.417829,1.86004175 C120.347975,1.95240084 120.149228,1.91645094 120.024134,1.95386221 C120.105971,2.0988309 120.226973,2.37386221 120.361712,2.6097286 C120.418121,2.7091023 120.640835,2.85407098 120.60547,2.94701461 C120.559875,3.0668476 120.41286,3.01716075 120.267891,3.05983299 C120.282505,3.18580376 120.387432,3.20860125 120.380418,3.32200418 C120.371357,3.4605428 120.205052,3.46814196 120.249186,3.69699374 C120.299457,3.95858038 120.681169,4.00651357 120.905344,4.14680585 C121.225971,3.92409186 121.337912,3.49269311 121.729854,3.34100209 C121.854071,3.38542797 121.834781,3.57365344 121.880084,3.69699374 C121.998163,3.78496868 122.217077,3.77210856 122.292192,3.90304802 C122.38309,4.3280167 122.066263,4.56359081 121.917495,4.85908142 C121.84501,5.00317328 121.798246,5.14141962 121.711148,5.32789144 C121.652985,5.45298539 121.487265,5.65816284 121.486096,5.77770355 C121.484927,5.92237996 121.696242,6.0845929 121.692443,6.24651357 C121.689228,6.39440501 121.52263,6.51336117 121.486096,6.67762004 C121.769019,6.60659708 122.178789,6.33974948 122.498539,6.54609603 C122.502046,6.70597077 122.324342,6.68463466 122.329896,6.84626305 C122.43453,7.04296451 122.662797,7.0514405 122.667182,7.27736952 C122.671273,7.47728601 122.45382,7.49102296 122.404718,7.68977035 C122.370522,7.82860125 122.425177,7.9908142 122.404718,8.06446764 C122.342171,8.29215031 121.866639,8.47043841 121.636326,8.60839248 C120.926681,9.03277662 120.27023,9.35135699 119.367975,9.60183716 C119.163967,9.65824635 118.968142,9.67870564 118.899457,9.77048017 C118.743674,9.97858038 118.948852,10.3865971 118.955574,10.5949896 C119.121002,10.6987474 119.36739,10.6329854 119.593027,10.5949896 C119.81691,10.5575783 120.125553,10.5491023 120.249186,10.4640501 C120.372526,10.3787056 120.368727,10.1869729 120.45524,10.0329436 C120.622714,9.73394572 121.111983,9.52029228 121.542505,9.47060543 C121.539875,9.26542797 121.434948,9.06784969 121.505094,8.85185804 C121.685136,8.94041754 121.688351,9.20609603 121.898497,9.26425887 C121.993486,9.19031315 121.989102,9.01757829 122.142255,9.00179541 C122.295699,9.12075157 122.307098,9.29962422 122.423424,9.47060543 C122.530104,9.62668058 122.78,9.84559499 122.948351,10.014238 C123.151775,10.2173695 123.587265,10.5514405 123.285637,10.8200418 C122.884635,10.8638831 123.273653,11.1327766 123.32334,11.3449687 C123.413653,11.7319415 123.064969,12.2571608 122.817119,12.4509395 C122.621587,12.4225887 122.282839,12.299833 122.161253,12.4696451 C122.109228,12.8724008 122.702255,13.0606263 122.667182,13.5192067 C122.655198,13.674405 122.540919,13.7404593 122.554948,13.8754906 C122.578038,14.1034656 122.957704,14.1294781 122.967349,14.3253027 C122.977286,14.539833 122.658706,14.5822129 122.498539,14.6067641 C122.638539,14.9855532 123.124301,14.8677662 123.398163,15.0752818 C123.592234,15.2222965 123.629061,15.4970355 123.773152,15.7124426 C123.91023,15.9173278 124.087933,16.0079332 124.316785,16.1061378 C124.514071,15.9775365 124.54096,15.7004593 124.785303,15.6563257 C125.076409,15.6034238 125.54142,15.9453862 125.647808,16.1435491 C125.738413,16.3133612 125.701002,16.5141545 125.72263,16.7248852 C125.752443,17.0130689 125.928392,17.2872234 125.835157,17.5119833 C125.542589,17.7931524 125.033445,17.3448017 124.747891,17.474572 C124.615198,17.5350731 124.631858,17.746096 124.541545,17.7931524 C124.321169,17.908309 123.890063,17.7484342 123.69833,17.6996242 C123.598372,17.673904 123.452234,17.6446764 123.32334,17.5870981 C123.230981,17.5458873 123.087182,17.4175783 123.00476,17.4184551 C122.82881,17.4196242 122.610188,17.6581211 122.611065,17.8495616 C122.612526,18.2043841 123.2,18.5112735 123.266931,18.8617119 C123.174864,19.0508142 122.963549,19.1203758 122.854823,19.2928184 C122.931399,19.5207933 123.27453,19.7481837 123.210814,20.0237996 C123.163758,20.2269311 122.867683,20.1991649 122.667182,20.286263 C122.73382,20.5341127 122.845762,20.8570772 123.154405,20.81119 C123.325678,20.785762 123.52881,20.5045929 123.623215,20.4174948 C123.866096,20.1941962 124.008727,19.9852192 124.316785,19.8738622 C124.673946,19.7449687 125.077286,19.731524 125.441461,19.5552818 C125.935407,19.3162004 126.309812,18.9938205 126.847307,18.9552401 C127.594363,18.9017537 128.298163,19.036785 128.759374,19.5365762 C129.149562,19.9592067 129.448852,20.4885177 129.959165,20.8298956 C131.031524,21.548309 132.738121,21.254572 134.064175,21.6921086 C134.236618,21.7491023 134.531816,22.0247182 134.720334,22.1796242 C135.302839,22.6583716 135.880376,23.1724843 136.519875,23.6041754 C137.188017,24.0554489 137.790689,24.3974113 138.769228,24.5789144 C139.073486,24.6353236 139.430063,24.6756576 139.612735,24.8039666 C139.832526,24.9579958 139.812359,25.2964509 139.893904,25.6471816 L139.893904,25.9847599 C139.701587,26.2872651 139.401127,25.9160752 139.143925,25.7974113 C138.728601,25.6053862 138.244593,25.5884342 137.738372,25.5162422 C137.48643,25.4802923 137.278622,25.373904 137.100919,25.29119 C136.299499,24.9185386 135.566472,24.5029228 134.870271,24.1103967 C134.50785,23.9058038 134.210898,23.6588309 133.89524,23.3981211 C133.581921,23.1388727 133.236451,22.8664718 132.845678,22.7419624 C132.383299,22.5946555 131.813946,22.6206681 131.308601,22.5730271 C130.805303,22.5259708 130.267516,22.4759916 129.902756,22.2734447 C129.698455,22.1597495 129.468727,21.8999165 129.246597,21.7108142 C128.788309,21.3206263 128.344927,20.9769102 127.897161,20.5864301 C127.674447,20.3920668 127.456409,20.1486013 127.184593,20.0615031 C126.601211,19.8744468 126.387557,20.3350731 126.0038,20.4926096 C125.710355,20.6127349 125.307015,20.6291023 124.972944,20.7737787 C124.728017,20.8795825 124.201628,21.1008351 124.166848,21.2797077 C124.150772,21.3615449 124.2519,21.4793319 124.223257,21.617286 C124.719833,21.7187056 124.882338,22.0516075 125.254113,22.2734447 C125.444092,22.3865553 125.742213,22.5525678 125.985094,22.5356159 C126.220668,22.5195407 126.30952,22.2211273 126.603841,22.2734447 C126.737996,22.297119 126.787975,22.4073069 126.847307,22.5543215 C126.893194,22.668309 127.007766,22.8737787 126.997537,22.9857203 C126.974739,23.2309395 126.650313,23.3551566 126.622255,23.5667641 C126.583382,23.8634238 126.782714,24.1226722 126.641253,24.3728601 C126.562046,24.5122756 126.126848,24.7291441 125.816451,24.7475574 C125.617411,24.7592484 125.494948,24.7002088 125.329228,24.7288518 C124.634489,24.8492693 124.476952,25.4306054 123.773152,25.3288935 C123.57382,25.2999582 123.52881,24.9892693 123.360752,24.9726096 C123.121962,24.948643 122.923215,25.2783299 122.53595,25.2160752 C122.360877,25.0184969 122.39595,24.7399582 122.123549,24.6540292 C121.837411,24.5634238 121.416534,24.8095198 121.186514,24.5602088 C121.401628,24.0332359 120.997411,23.7403758 120.492944,23.8479332 C120.257077,23.8982046 120.11737,24.0890605 119.874196,24.1852192 C119.645637,24.2758246 119.44952,24.3103132 119.274447,24.3728601 C119.261294,24.5295198 119.417954,24.6177871 119.518205,24.7101461 C119.626639,24.8103967 119.745303,24.9430898 119.874196,24.9913152 C120.197745,25.1120251 120.571858,25.080167 120.886347,25.1412526 C121.337912,25.2292276 121.83595,25.3768267 121.99261,25.7410021 C122.142255,26.0902714 121.911649,26.4941962 122.048727,26.8846764 C122.107182,27.0512735 122.281086,27.0869311 122.423424,27.1468476 C122.760418,27.2894781 123.178372,27.3923591 123.566806,27.2219624 C123.869896,27.0892693 124.025094,26.8434656 124.316785,26.7534447 C124.466138,26.7072651 124.777411,26.8086848 124.953946,26.8282672 C125.182213,26.8536952 125.404927,26.8572025 125.553987,26.9220877 C125.815866,27.0360752 125.73023,27.1559081 125.797453,27.4657203 C125.817912,27.5586639 125.901795,27.654238 125.910271,27.7281837 C125.9281,27.8842589 125.839833,28.0037996 125.872568,28.1215866 C125.968727,28.4670564 126.26977,28.4015866 126.585136,28.5152818 C126.714614,28.5623382 127.16238,28.8908559 127.147182,29.0402088 C127.127015,29.239833 126.653528,29.2524008 126.678664,29.5274322 C126.694739,29.7030898 127.064468,29.7896033 127.16618,29.9024217 C127.30618,30.0587891 127.520125,30.4790814 127.465762,30.7646347 C127.410814,31.0569102 126.87858,31.3146973 126.491023,31.3082672 C126.264509,31.3044676 125.966388,31.2004175 125.666514,31.1957411 C125.33858,31.1907724 124.96476,31.236952 124.71048,31.1957411 C124.312693,31.1317328 124.211273,30.5559499 123.773152,30.5585804 C123.503382,30.560334 123.285929,30.9435073 123.060877,31.0270981 C122.689102,31.1653445 122.099582,31.1103967 121.898497,30.8397495 C121.782463,30.6827975 121.864593,30.3659708 121.804969,30.1835908 C121.730146,29.9553236 121.441086,29.9272651 121.111399,29.9211273 C120.94071,29.7182881 120.575658,29.526263 120.249186,29.602547 C120.173486,29.8179541 120.17904,30.071357 120.230188,30.2961169 C120.277537,30.5024635 120.43858,30.6053445 120.473946,30.7836326 C120.515449,30.9914405 120.497328,31.2287683 120.530355,31.4020877 C120.566597,31.5920668 120.628559,31.6671816 120.68,31.8144885 C120.785219,32.1126096 120.649019,32.471524 120.698998,32.8640501 C120.730856,33.1156994 120.888392,33.3980376 120.998873,33.6701461 C121.094447,33.9060125 121.300501,34.2918163 121.204927,34.551357 C121.114906,34.7971608 120.4038,34.8129436 120.117954,34.6825887 C119.973278,34.6165344 119.762255,34.3520251 119.668142,34.2137787 C119.514113,33.988142 119.496868,33.7744885 119.311858,33.6327349 C119.144969,33.5050104 118.962004,33.5435908 118.824635,33.4453862 C118.727599,33.3758246 118.676743,33.1931524 118.580877,33.0326931 C118.449353,32.8131942 118.334781,32.7518163 118.337119,32.5080585 C118.341211,32.1012109 118.514823,31.6245094 118.674405,31.3272651 C118.817912,31.059833 119.164843,30.6602923 119.199332,30.3335282 C119.243173,29.9182046 118.990063,29.8749478 118.618288,29.7524843 C118.70334,29.5186639 118.697203,28.7751148 118.337119,28.8151566 C118.125511,28.8388309 117.999541,29.5025887 117.943424,29.7898956 C117.866263,30.1862213 117.849896,30.6184969 117.849896,31.0648017 C117.849896,32.0319415 117.991065,32.8526514 117.999833,33.6701461 C118.00977,34.6027975 117.882923,35.51762 117.924718,36.3321921 C117.969729,37.2075574 118.326597,37.8055532 118.674405,38.3377871 C120.330438,38.417286 122.018038,38.6157411 123.754447,38.4690188 C124.530731,38.4032568 125.295908,38.2579958 126.078622,38.1504384 C126.894363,38.0379123 127.763299,38.0753236 128.646848,38.0753236 C131.695574,38.0750313 134.772944,38.0276827 137.775783,37.9440919 C138.179708,37.9329854 138.755783,37.9037578 138.99428,38.056618 C139.200626,38.1893111 139.226054,38.5011691 139.200334,38.9001253 C139.161461,39.5016284 139.138079,40.0709812 138.694113,40.2121503 C138.184384,40.3743633 137.264593,40.2723591 136.613403,40.2308559 C135.91048,40.1864301 135.212234,40.1177453 134.570397,40.0999165 C130.230689,39.9789144 125.919624,40.1262213 121.598914,40.006096 C120.222881,39.9678079 118.80739,39.8450522 117.399791,39.8935699 C116.001545,39.9417954 114.554781,39.9865136 113.182255,40.0248017 C111.071441,40.0835491 108.866514,40.1078079 106.715073,40.006096 C106.067975,39.9754071 105.060501,39.9517328 104.990647,39.537286 C104.947975,39.2835908 105.183549,38.6031733 105.346931,38.5438413 C105.583967,38.4582046 105.892025,38.6324008 106.152735,38.6376618 C106.516326,38.645261 106.902129,38.5575783 107.296117,38.5438413 C107.691273,38.5303967 108.107182,38.562547 108.514614,38.562547 C110.896952,38.562547 113.577119,38.7171608 115.806597,38.562547 C115.825303,38.562547 115.829102,38.5473486 115.844008,38.5438413 C115.92263,38.3746138 116.011482,38.2235073 116.087766,38.056618 C116.181587,37.8514405 116.181587,37.6789979 116.181587,37.4191649 C116.181587,36.9500626 116.191232,36.4681002 116.256409,36.0133194 C116.315157,35.6032568 116.396701,35.1817954 116.443758,34.7387056 C116.492276,34.2824635 116.469478,33.7885177 116.481169,33.2951566 C116.515658,31.8615449 116.589311,30.3335282 116.387641,29.07762 C116.316033,28.6318998 116.277161,28.1782881 116.143883,27.8404175 C116.080459,27.6793737 115.803382,27.362547 115.637662,27.3531942 C115.474864,27.3441336 115.348601,27.5849687 115.206848,27.6343633 C115.106889,27.6691441 114.938246,27.6670981 114.869562,27.7094781 C114.555658,27.9015031 114.560626,28.4126931 114.531691,28.740334 C114.522338,28.8475992 114.296409,28.9498956 114.156994,29.0589144 C114.00881,29.1749478 113.916743,29.2526931 113.763299,29.3213779 C113.336576,29.5122338 112.56263,29.7533612 112.338747,29.3213779 C112.238205,29.4792067 112.070438,29.5896868 111.851232,29.6773695 C111.636701,29.7635908 111.38476,29.7492693 111.157662,29.8275992 C110.996326,29.8834238 110.793779,30.0634656 110.595616,30.1835908 C110.386054,30.3104384 110.225887,30.4706054 110.070689,30.5959916 C110.060752,30.6038831 110.043507,30.6091441 110.033278,30.6149896 C109.840668,30.7184551 109.617077,30.7605428 109.41453,30.8771608 C108.846347,31.2048017 108.245428,31.5382881 107.596284,31.7393737 C106.637328,32.036618 105.702046,32.1590814 104.765595,32.4893528 C103.454739,32.9517328 101.997453,33.2738205 100.58547,33.6701461 C100.166931,33.7876409 99.5853027,34.0474739 99.1422129,34.0264301 C98.7564092,34.0080167 98.457119,33.5833403 98.448643,33.2390397 C98.4343215,32.648643 99.4713152,32.7643841 100.023424,32.6767015 C101.290438,32.4756159 102.720835,32.0749061 103.772443,31.8144885 C102.514489,31.0951983 101.029729,30.731023 99.5546138,30.3712317 C98.7870981,30.1838831 98.0803758,29.9787056 97.4177871,29.6773695 C96.4535699,29.2392484 95.5241336,28.6906472 94.6622129,28.1779958 C94.3611691,27.9988309 93.9820877,27.9400835 93.5375365,27.8781211 C92.7676827,27.7708559 91.7324426,27.7185386 90.856785,27.8404175 C90.0597495,27.9517745 89.3653027,28.2525261 88.7202505,28.5339875 C88.225428,28.7499791 87.7282672,28.9764927 87.3331106,29.2839666 C87.1919415,29.3935699 87.0648017,29.5306472 86.9207098,29.5838413 C86.5775783,29.7103967 86.206096,29.5779958 85.8334447,29.5651357 C85.5759499,29.5560752 85.3184551,29.5853027 85.1398747,29.4713152 C85.1124008,29.0200418 85.074405,28.3896033 85.5332777,28.3279332 C85.7989562,28.2922756 86.2011273,28.408309 86.4708977,28.3092276 C86.6053445,28.2595407 86.7324843,28.0806681 86.8643006,27.9719415 C87.002547,27.8573695 87.1662213,27.7594572 87.2954071,27.6717745 C87.8793737,27.276618 88.7658455,27.2412526 89.4696451,26.9220877 C89.83119,26.7584134 90.2102714,26.6718998 90.6130271,26.603215 C91.5079749,26.4506472 92.383048,26.5365762 93.2750731,26.6409186 C93.7269311,26.6938205 94.1518998,26.7326931 94.5496868,26.8282672 C94.9308142,26.9197495 95.208476,27.1085595 95.5244259,27.2783716 C95.2125678,26.9600835 94.9892693,26.5567432 94.9620877,26.0785804 C94.8817119,24.6563674 96.3313987,23.6091441 97.6802505,24.260334 C97.7936534,24.3149896 97.8740292,24.4228392 97.942714,24.2977453 C98.0832985,24.0402505 97.6188727,23.9493528 97.642547,23.6415866 C97.6554071,23.47762 97.7965762,23.4638831 97.81119,23.3230063 C97.8453862,23.2929019 98.1063883,23.3159916 97.979833,23.2478914 C97.9359916,23.2613361 97.8611691,23.2908559 97.8675992,23.2104802 C97.8734447,23.1271816 98.0526096,23.1809603 98.0175365,23.1543633 C98.0125678,23.037453 98.0026305,23.0058873 98.0362422,22.9106054 C98.691524,22.659833 99.2445094,22.3067641 99.7232568,21.8797495 C99.7635908,21.7187056 99.7922338,21.5997495 99.7983716,21.4109395 C99.8042171,21.2417119 99.8325678,21.0426722 99.7422547,20.9611273 C99.7016284,20.8953653 99.7334864,21.1408768 99.6297286,21.0549478 C99.5779958,20.9593737 99.5300626,20.9634656 99.3859708,20.979833 C99.2915658,20.8681837 99.2442171,20.7091858 99.0296868,20.7173695 C99.0206263,20.6331942 99.0390397,20.5770772 99.0486848,20.5113152 C98.9405428,20.5139457 98.826263,20.5949061 98.7298121,20.5487265 C98.7929436,19.7996242 99.2000835,19.3945303 100.023424,19.4053445 C99.9512317,19.5368685 100.130397,19.6268894 100.154656,19.780334 C100.182129,19.9559916 100.050898,20.1120668 100.079541,20.286263 C100.643048,20.2736952 101.127933,20.5332359 101.391566,20.9611273 C101.454697,21.0637161 101.476033,21.1820877 101.541795,21.2797077 C101.610772,21.3831733 101.706054,21.4387056 101.766848,21.5421712 C101.757203,21.6532359 101.877035,21.7154906 101.935198,21.8233403 C101.992192,21.9288518 101.976701,22.0849269 102.085136,22.1609186 C102.173987,22.3888935 102.307265,22.6022547 102.328894,22.8731942 C102.371858,23.4147808 102.01382,23.8125678 101.710146,24.0165762 C102.056493,24.2515658 102.74977,24.1393319 102.966347,24.5037996 C102.839207,24.5493946 102.715574,24.6709812 102.591357,24.6727349 C102.436451,24.6747808 102.308727,24.4906472 102.141545,24.4850939 C101.965303,24.6116493 101.813904,24.8235491 101.672735,25.0100209 C101.535365,25.1921086 101.301253,25.3838413 101.354154,25.6287683 C101.257704,25.6132777 101.206555,25.6436743 101.166806,25.6848852 C101.147223,25.8500209 101.266472,26.0335699 101.354154,26.1534029 C102.730772,25.8888935 103.656409,26.7098956 103.772443,27.8594154 C103.889353,29.0238413 102.979499,29.946263 101.766848,29.8837161 C103.026848,30.2525678 104.489102,30.8087683 105.796743,31.1396242 C105.808142,31.142547 105.822463,31.1390397 105.834154,31.1396242 C106.297996,31.1635908 106.777035,30.9364927 107.183883,30.7836326 C107.614405,30.6217119 108.017161,30.4577453 108.421086,30.2961169 C108.406764,30.219833 108.301837,30.2806263 108.383382,30.2022965 C108.492693,30.0979541 108.944551,30.0880167 108.964426,29.8650104 C108.986931,29.6168685 108.610772,29.5619207 108.552317,29.3400835 C108.61691,29.2798747 108.77357,29.3117328 108.739666,29.1527349 C108.635616,29.0922338 108.55524,29.2269729 108.495908,29.2839666 C108.413194,29.3637578 108.355324,29.433904 108.214739,29.4713152 C108.013946,29.5248017 107.71904,29.5303549 107.502756,29.5838413 C107.279457,29.6390814 107.011733,29.7746973 106.808894,29.7337787 C106.437411,29.6589562 106.37048,29.0282255 106.021503,28.9653862 C105.866305,28.9370355 105.646221,29.0232568 105.496868,28.9837996 C105.187349,28.8306472 105.124802,28.09119 105.196994,27.5592484 C105.226514,27.3397495 105.410355,27.2202088 105.515574,27.0720251 C105.630731,26.9089353 105.655282,26.7271399 105.778038,26.6596242 C106.001921,26.5362839 106.310271,26.6821294 106.584134,26.6409186 C106.552568,26.4170355 106.355282,26.1905219 106.171733,25.9473486 C106.016534,25.7418789 105.750856,25.4984134 105.684217,25.29119 C105.569645,24.9360752 105.698246,24.3155741 105.946681,24.2226305 C106.155658,24.1448852 106.344175,24.2527349 106.528017,24.2977453 C106.712443,24.0583716 106.59904,23.6544468 106.69666,23.3604175 C106.759791,23.1695616 106.910898,23.116952 106.940125,22.9480167 C106.854781,22.7632985 106.554614,22.7463466 106.396493,22.5172025 C106.280167,22.3476827 106.300626,22.0650522 106.265261,21.7672234 C106.218205,21.37119 106.131983,21.0333194 106.565136,21.0736534 C106.744008,20.733737 107.077495,20.5487265 107.483758,20.4362004 C107.527599,20.2593737 107.427349,20.0144468 107.483758,19.7990397 C107.525553,19.6400418 107.766096,19.5549896 107.840042,19.4240501 C107.942338,19.242547 107.912818,19.0829645 108.046096,18.9552401 C108.179081,18.8281002 108.365261,18.8356994 108.495908,18.6743633 C108.721837,18.3955324 108.759833,18.005929 108.908309,17.6996242 C109.042171,17.4231315 109.298205,17.1264718 109.620877,17.0247599 C109.764676,16.9794572 109.985637,17.0130689 110.070689,16.9122338 C110.324384,16.61119 109.922213,16.182714 109.864635,15.9936117 C109.748309,15.6136534 109.872234,15.108309 110.220334,15.0565762 C110.466138,15.0197495 110.543591,15.2284342 110.70785,15.16881 C110.742923,14.8791649 110.289019,13.8585386 110.632735,13.500501 C110.767182,13.3610856 111.030814,13.4455532 111.251482,13.3695616 C111.388559,13.0676409 111.409019,12.6555324 111.307599,12.3010021 C111.207056,11.9491023 110.894906,11.7477244 110.895491,11.4762004 C110.895783,11.1707724 111.30263,10.7577871 111.607474,10.7639248 C111.841587,10.7686013 111.862338,11.0065136 112.151399,10.9512735 C112.510898,10.8825887 112.385804,10.3480167 112.451273,9.97653445 C112.523173,9.56793319 112.934697,9.57787056 113.20096,9.37678497 C113.428935,9.20463466 113.371357,8.86968685 113.538539,8.60839248 C113.672693,8.39853862 113.952401,8.58851775 114.100877,8.40204593 C114.444301,7.97035491 113.651357,7.67720251 113.632067,7.35219207 C113.615699,7.07248434 113.955616,6.54697286 114.100877,6.41515658 C114.35048,6.18835073 114.696242,6.11849687 114.981503,5.94634656 C114.937662,5.637119 114.538706,5.71340292 114.531691,5.40271399 C114.527891,5.21156576 114.689812,5.18321503 114.681921,5.00931106 C114.676367,4.89620042 114.584885,4.82663883 114.550689,4.72784969 C114.442255,4.41511482 114.435825,3.94162839 114.513278,3.60346555 C114.599499,3.22496868 114.892651,2.79327766 115.206848,2.62872651 C115.39215,2.53139875 115.594405,2.58430063 115.825303,2.51590814 C115.969102,2.47352818 116.281545,2.23473904 116.312526,2.10379958 C116.412192,1.68672234 116.071399,1.33628392 116.2,0.99782881 C116.201169,0.986137787 116.202923,0.975615866 116.218998,0.979123173 C116.429436,0.865135699 116.653612,1.06271399 116.76263,0.885302714 C116.86405,0.719874739 116.65858,0.639498956 116.66881,0.454196242 C116.680793,0.239373695 116.871942,0.202839248 116.987683,0.0417954071 L116.987683,0.0417954071 Z" id="Fill-51"></path>
            </g>
        </g>
    </g>
</svg>