<svg xmlns="http://www.w3.org/2000/svg" xmlns:xlink="http://www.w3.org/1999/xlink" viewBox="0 0 265.3 218.6"><defs><style>.a{fill:none;}.b{fill:#6ebf55;}.c{fill:#55308d;}.d{fill:#ee8922;}.e{fill:#eae611;}.f{fill:#0065b2;}.g{fill:#22bed8;}.h{fill:#e61d32;}.i{fill:#aa4828;}.j{fill:#006f82;}.k{fill:#fad31d;}.l{fill:#ed1c24;}.m{fill:#de1f27;}.n{fill:#8ebd3f;}.o{fill:#00a651;}.p{fill:#e51e26;}.q{fill:#ed6f23;}.r{fill:#17bcc1;}.s{fill:#95c13d;}.t{fill:#9a69ad;}.u{fill:#00a7ac;}.v{fill:#e9e611;}.w{fill:#0062b0;}.x{clip-path:url(#a);}.y{fill:#ac83bb;}.z{fill:#cdde5a;}.aa{fill:#cc4935;}.ab{fill:#eee943;}.ac{fill:#afaa36;}.ad{fill:#c62228;}.ae{fill:#917f33;}.af{fill:#00535c;}.ag{fill:#a4cd39;}.ah{fill:#233f98;}.ai{fill:#6dcad8;}.aj{fill:#f8e70f;}.ak{fill:#a8d489;}.al{fill:#cac72d;}.am{fill:#d74128;}.an{fill:#b75229;}.ao{fill:#81181a;}.ap{fill:#00b288;}.aq{fill:#921d20;}.ar{fill:#e31e26;}.as{fill:#e61d31;}.at{fill:#df7144;}.au{fill:#acdcd3;}.av{fill:#231f20;}.aw{fill:#5fbdb8;}.ax{fill:#891a1d;}.ay{fill:#ebe70f;}.az{fill:#5bbdb8;}.ba{fill:#00757f;}.bb{fill:#ece70e;}.bc{fill:#2d2b6e;}.bd{fill:#9a1e22;}.be{fill:#93c23e;}.bf{fill:#e61e25;}.bg{fill:#e31f26;}.bh{fill:#0d4ba0;}.bi{fill:#a29c9a;}.bj{fill:#b5d334;}</style><clipPath id="a"><path class="a" d="M62.3,0.1H170.9c48.8,0,78.7,22.6,78.7,71.6,0,28.2-17.7,50.8-44.8,58.8L254.5,218H193.8L151,140.5H116.6V218H62.3V0.1Zm54.3,99.1h49.7c17.4-.3,29-9.2,29-29.4s-11.6-29.1-29-29.4H116.6V99.3Z"/></clipPath></defs><title>resolution</title><rect class="b" y="78.1" width="15.6" height="15.61"/><rect class="c" x="15.6" y="15.6" width="15.6" height="15.61"/><rect class="d" x="15.6" y="140.5" width="15.6" height="15.61"/><rect class="e" x="15.6" y="203" width="15.6" height="15.23"/><rect class="f" x="62.4" width="15.6" height="15.61"/><rect class="g" x="62.4" y="15.6" width="15.6" height="15.61"/><rect class="h" x="62.4" y="31.2" width="15.6" height="15.61"/><rect class="i" x="62.4" y="46.8" width="15.6" height="15.61"/><rect class="j" x="62.4" y="62.4" width="15.6" height="15.61"/><rect class="k" x="62.4" y="93.7" width="15.6" height="15.61"/><rect class="l" x="62.4" y="109.3" width="15.6" height="15.61"/><rect class="c" x="62.4" y="124.9" width="15.6" height="15.61"/><rect class="d" x="62.4" y="140.5" width="15.6" height="15.61"/><rect class="m" x="62.4" y="156.1" width="15.6" height="15.61"/><rect class="k" x="62.4" y="171.7" width="15.6" height="15.61"/><rect class="n" x="62.4" y="187.3" width="15.6" height="15.61"/><rect class="e" x="62.4" y="203" width="15.6" height="15.15"/><rect class="o" x="46.8" y="15.6" width="15.6" height="15.61"/><rect class="p" x="31.2" width="15.6" height="15.61"/><rect class="q" x="31.2" y="31.2" width="15.6" height="15.61"/><rect class="r" x="31.2" y="78.1" width="15.6" height="15.61"/><rect class="g" x="31.2" y="156.1" width="15.6" height="15.61"/><rect class="l" x="31.2" y="187.3" width="15.6" height="15.61"/><rect class="s" x="46.8" y="31.2" width="15.6" height="15.61"/><rect class="t" x="46.8" y="46.8" width="15.6" height="15.61"/><rect class="u" x="46.8" y="93.7" width="15.6" height="15.61"/><rect class="v" x="46.8" y="140.5" width="15.6" height="15.61"/><rect class="w" x="46.8" y="187.3" width="15.6" height="15.61"/><rect class="o" x="46.8" y="203" width="15.6" height="15.07"/><g class="x"><rect class="y" x="78.1" width="15.6" height="15.61"/><rect class="z" x="78.1" y="15.6" width="15.6" height="15.61"/><rect class="r" x="78.1" y="31.2" width="15.6" height="15.61"/><rect class="t" x="78.1" y="46.8" width="15.6" height="15.61"/><rect class="aa" x="78.1" y="62.4" width="15.6" height="15.61"/><rect class="ab" x="78.1" y="78.1" width="15.6" height="15.61"/><rect class="ac" x="78.1" y="93.7" width="15.6" height="15.61"/><rect class="ad" x="78.1" y="109.3" width="15.6" height="15.61"/><rect class="o" x="78.1" y="124.9" width="15.6" height="15.61"/><rect class="ae" x="78.1" y="140.5" width="15.6" height="15.61"/><rect class="af" x="78.1" y="156.1" width="15.6" height="15.61"/><rect class="ag" x="78.1" y="171.7" width="15.6" height="15.61"/><rect class="ah" x="78.1" y="187.3" width="15.6" height="15.61"/><rect class="ai" x="93.7" width="15.6" height="15.61"/><rect class="aj" x="93.7" y="15.6" width="15.6" height="15.61"/><rect class="ak" x="93.7" y="31.2" width="15.6" height="15.61"/><rect class="al" x="93.7" y="46.8" width="15.6" height="15.61"/><rect class="am" x="93.7" y="62.4" width="15.6" height="15.61"/><rect class="an" x="93.7" y="78.1" width="15.6" height="15.61"/><rect class="b" x="93.7" y="93.7" width="15.6" height="15.61"/><rect class="u" x="93.7" y="109.3" width="15.6" height="15.61"/><rect class="p" x="93.7" y="124.9" width="15.6" height="15.61"/><rect class="ao" x="93.7" y="140.5" width="15.6" height="15.61"/><rect class="ap" x="93.7" y="156.1" width="15.6" height="15.61"/><rect class="f" x="93.7" y="171.7" width="15.6" height="15.61"/><rect class="aq" x="93.7" y="187.3" width="15.6" height="15.61"/><rect class="ar" x="93.7" y="203" width="15.6" height="15.61"/><rect class="f" x="109.3" width="15.6" height="15.61"/><rect class="g" x="109.3" y="15.6" width="15.6" height="15.61"/><rect class="h" x="109.3" y="31.2" width="15.6" height="15.61"/><rect class="i" x="109.3" y="46.8" width="15.6" height="15.61"/><rect class="j" x="109.3" y="62.4" width="15.6" height="15.61"/><rect class="as" x="109.3" y="78.1" width="15.6" height="15.61"/><rect class="k" x="109.3" y="93.7" width="15.6" height="15.61"/><rect class="l" x="109.3" y="109.3" width="15.6" height="15.61"/><rect class="c" x="109.3" y="124.9" width="15.6" height="15.61"/><rect class="d" x="109.3" y="140.5" width="15.6" height="15.61"/><rect class="m" x="109.3" y="156.1" width="15.6" height="15.61"/><rect class="n" x="109.3" y="187.3" width="15.6" height="15.61"/><rect class="e" x="109.3" y="203" width="15.6" height="15.61"/><rect class="at" x="124.9" width="15.6" height="15.61"/><rect class="au" x="124.9" y="15.6" width="15.6" height="15.61"/><rect class="w" x="124.9" y="31.2" width="15.6" height="15.61"/><rect class="av" x="124.9" y="46.8" width="15.6" height="15.61"/><rect class="av" x="124.9" y="62.4" width="15.6" height="15.61"/><rect class="av" x="124.9" y="78.1" width="15.6" height="15.61"/><rect class="o" x="124.9" y="93.7" width="15.6" height="15.61"/><rect class="q" x="124.9" y="109.3" width="15.6" height="15.61"/><rect class="aw" x="124.9" y="124.9" width="15.6" height="15.61"/><rect class="av" x="124.9" y="140.5" width="15.6" height="15.61"/><rect class="av" x="124.9" y="156.1" width="15.6" height="15.61"/><rect class="l" x="124.9" y="171.7" width="15.6" height="15.61"/><rect class="av" x="124.9" y="187.3" width="15.6" height="15.61"/><rect class="ax" x="124.9" y="203" width="15.6" height="15.61"/><rect class="ay" x="140.5" width="15.6" height="15.61"/><rect class="ad" x="140.5" y="15.6" width="15.6" height="15.61"/><rect class="o" x="140.5" y="31.2" width="15.6" height="15.61"/><rect class="av" x="140.5" y="46.8" width="15.6" height="15.61"/><rect class="av" x="140.5" y="62.4" width="15.6" height="15.61"/><rect class="av" x="140.5" y="78.1" width="15.6" height="15.61"/><rect class="ac" x="140.5" y="109.3" width="15.6" height="15.61"/><rect class="t" x="140.5" y="124.9" width="15.6" height="15.61"/><rect class="v" x="140.5" y="140.5" width="15.6" height="15.61"/><rect class="av" x="140.5" y="156.1" width="15.6" height="15.61"/><rect class="av" x="140.5" y="171.7" width="15.6" height="15.61"/><rect class="av" x="140.5" y="187.3" width="15.6" height="15.61"/><rect class="s" x="140.5" y="203" width="15.6" height="15.61"/><rect class="t" x="156.1" width="15.6" height="15.61"/><rect class="p" x="156.1" y="15.6" width="15.6" height="15.61"/><rect class="aa" x="156.1" y="31.2" width="15.6" height="15.61"/><rect class="av" x="156.1" y="46.8" width="15.6" height="15.61"/><rect class="av" x="156.1" y="62.4" width="15.6" height="15.61"/><rect class="av" x="156.1" y="78.1" width="15.6" height="15.61"/><rect class="az" x="156.1" y="93.7" width="15.6" height="15.61"/><rect class="w" x="156.1" y="109.3" width="15.6" height="15.61"/><rect class="ay" x="156.1" y="124.9" width="15.6" height="15.61"/><rect class="ba" x="156.1" y="140.5" width="15.6" height="15.61"/><rect class="ae" x="156.1" y="156.1" width="15.6" height="15.61"/><rect class="p" x="156.1" y="171.7" width="15.6" height="15.61"/><rect class="av" x="156.1" y="187.3" width="15.6" height="15.61"/><rect class="e" x="156.1" y="203" width="15.6" height="15.61"/><rect class="ay" x="171.7" y="15.6" width="15.6" height="15.61"/><rect class="ac" x="171.7" y="31.2" width="15.6" height="15.61"/><rect class="ak" x="171.7" y="46.8" width="15.6" height="15.61"/><rect class="av" x="171.7" y="62.4" width="15.6" height="15.61"/><rect class="aa" x="171.9" y="78.6" width="15.6" height="15.61"/><rect class="b" x="171.7" y="93.7" width="15.6" height="15.61"/><rect class="bb" x="171.7" y="109.3" width="15.6" height="15.61"/><rect class="b" x="171.7" y="124.9" width="15.6" height="15.61"/><rect class="aq" x="171.7" y="140.5" width="15.6" height="15.61"/><rect class="aa" x="171.7" y="156.1" width="15.6" height="15.61"/><rect class="bc" x="171.7" y="171.7" width="15.6" height="15.61"/><rect class="ag" x="171.7" y="187.3" width="15.6" height="15.61"/><rect class="f" x="171.7" y="203" width="15.6" height="15.61"/><rect class="p" x="187.3" width="15.6" height="15.61"/><rect class="ak" x="187.3" y="15.6" width="15.6" height="15.61"/><rect class="q" x="187.3" y="31.2" width="15.6" height="15.61"/><rect class="bb" x="187.3" y="46.8" width="15.6" height="15.61"/><rect class="aq" x="187.3" y="62.4" width="15.6" height="15.61"/><rect class="r" x="187.3" y="78.1" width="15.6" height="15.61"/><rect class="t" x="187.3" y="93.7" width="15.6" height="15.61"/><rect class="aa" x="187.3" y="109.3" width="15.6" height="15.61"/><rect class="p" x="187.3" y="124.9" width="15.6" height="15.61"/><rect class="g" x="187.3" y="156.1" width="15.6" height="15.61"/><rect class="bd" x="187.3" y="171.7" width="15.6" height="15.61"/><rect class="l" x="187.3" y="187.3" width="15.6" height="15.61"/><rect class="b" x="187.3" y="203" width="15.6" height="15.61"/><rect class="ay" x="202.9" width="15.6" height="15.61"/><rect class="c" x="202.9" y="15.6" width="15.6" height="15.61"/><rect class="h" x="202.9" y="31.2" width="15.6" height="15.61"/><rect class="t" x="202.9" y="46.8" width="15.6" height="15.61"/><rect class="l" x="202.9" y="62.4" width="15.6" height="15.61"/><rect class="bc" x="202.9" y="78.1" width="15.6" height="15.61"/><rect class="u" x="202.9" y="93.7" width="15.6" height="15.61"/><rect class="s" x="202.9" y="109.3" width="15.6" height="15.61"/><rect class="aw" x="202.9" y="124.9" width="15.6" height="15.61"/><rect class="v" x="202.9" y="140.5" width="15.6" height="15.61"/><rect class="y" x="202.9" y="156.1" width="15.6" height="15.61"/><rect class="f" x="202.9" y="171.7" width="15.6" height="15.61"/><rect class="k" x="202.9" y="187.3" width="15.6" height="15.61"/><rect class="o" x="218.5" width="15.6" height="15.61"/><rect class="be" x="218.5" y="15.6" width="15.6" height="15.61"/><rect class="ak" x="218.5" y="31.2" width="15.6" height="15.61"/><rect class="o" x="218.5" y="46.8" width="15.6" height="15.61"/><rect class="aw" x="218.5" y="62.4" width="15.6" height="15.61"/><rect class="f" x="218.5" y="78.1" width="15.6" height="15.61"/><rect class="o" x="218.5" y="93.7" width="15.6" height="15.61"/><rect class="ba" x="218.5" y="109.3" width="15.6" height="15.61"/><rect class="c" x="218.5" y="124.9" width="15.6" height="15.61"/><rect class="p" x="218.5" y="140.5" width="15.6" height="15.61"/><rect class="z" x="218.5" y="156.1" width="15.6" height="15.61"/><rect class="bb" x="218.5" y="187.3" width="15.6" height="15.61"/><rect class="bf" x="218.5" y="203" width="15.6" height="15.61"/><rect class="av" x="234.1" width="15.6" height="15.61"/><rect class="f" x="234.1" y="15.6" width="15.6" height="15.61"/><rect class="t" x="234.1" y="31.2" width="15.6" height="15.61"/><rect class="p" x="234.1" y="46.8" width="15.6" height="15.61"/><rect class="an" x="234.1" y="62.4" width="15.6" height="15.61"/><rect class="p" x="234.1" y="93.1" width="15.6" height="15.61"/><rect class="z" x="234.1" y="109.3" width="15.6" height="15.61"/><rect class="aa" x="234.1" y="124.9" width="15.6" height="15.61"/><rect class="av" x="234.1" y="140.5" width="15.6" height="15.61"/><rect class="aq" x="234.1" y="156.1" width="15.6" height="15.61"/><rect class="bg" x="234.1" y="187.3" width="15.6" height="15.61"/><rect class="bh" x="234.1" y="203" width="15.6" height="15.61"/><rect class="av" x="249.7" width="15.6" height="15.61"/><rect class="av" x="249.7" y="15.6" width="15.6" height="15.61"/><rect class="t" x="249.7" y="31.2" width="15.6" height="15.61"/><rect class="q" x="249.7" y="46.8" width="15.6" height="15.61"/><rect class="bb" x="249.7" y="62.4" width="15.6" height="15.61"/><rect class="b" x="249.7" y="78.1" width="15.6" height="15.61"/><rect class="aw" x="249.7" y="93.7" width="15.6" height="15.61"/><rect class="av" x="249.7" y="109.3" width="15.6" height="15.61"/><rect class="av" x="249.7" y="124.9" width="15.6" height="15.61"/><rect class="av" x="249.7" y="140.5" width="15.6" height="15.61"/><rect class="bi" x="249.7" y="156.1" width="15.6" height="15.61"/><rect class="o" x="249.7" y="171.7" width="15.6" height="15.61"/><rect class="bj" x="249.7" y="187.3" width="15.6" height="15.61"/><rect class="g" x="249.7" y="203" width="15.6" height="15.61"/></g></svg>