<svg xmlns="http://www.w3.org/2000/svg" xmlns:xlink="http://www.w3.org/1999/xlink" viewBox="0 0 266.39 310.75"><defs><style>.a,.c{fill:none;}.b{clip-path:url(#a);}.c{stroke:#fff;stroke-linecap:round;stroke-width:1.54px;}.d{fill:#f7941e;}.e{fill:#3c2415;}.f{fill:#fff;opacity:0.4;}</style><clipPath id="a" transform="translate(-173.33 -200)"><ellipse class="a" cx="307.1" cy="310.25" rx="73.72" ry="73.48"/></clipPath></defs><title>SORBA_ATL_logo</title><g class="b"><line class="c" x1="186.84" y1="105.8" x2="192.91" y2="84.4"/><path class="d" d="M379.31,303.85v-3.62l-10.62-18.84-5.9,18.84h-1.54l5.91-19.16L356,298.21V280.42S343.24,259.37,345.31,246h-1.48s2.31,11.41-11.14,33.64V295.6h-2.82V290h-3.56v-5.63h-3.46v-5.93h-3.57v-5.33h-4.61v5.33h-3.56v5.93h-3.47V290h-3.56v5.63H301V282.43c0-2.55-5.33-4.63-12-4.72V261a0.78,0.78,0,1,0-1.56,0v16.69c-6.36.21-11.35,2.24-11.35,4.7v22.14h-3.7v-7h-3.28v-1.64a1,1,0,0,1-.41.09,1,1,0,0,1-1-1V291.2a1,1,0,0,1,1-1,1,1,0,0,1,.41.09v-2.13H258.32v2.1a1,1,0,0,1,1.31.94V295a1,1,0,0,1-1,1,0.9,0.9,0,0,1-.3-0.06v1.62H255v7h-3.74v5h-2.71v-5.47H246V302.8a0.77,0.77,0,0,1-1.1-.71v-3a0.79,0.79,0,0,1,.78-0.78,0.77,0.77,0,0,1,.32.07v-1.65h-8.38v1.63a0.71,0.71,0,0,1,.24,0,0.79,0.79,0,0,1,.78.78v3a0.79,0.79,0,0,1-.78.79,0.86,0.86,0,0,1-.24-0.05v1.26H235.1v5.47h-2.92v60h19.11V428.6h10.57l8.89-31.72,5.31,3.24v22l6.12,5.34,0.89,9.49,10.37,11H301v-17l6.58-8L323.84,409,325,390.9l3.56-8,4.42,5.8v13.39l4.4-10.07-1.17-13.63,4.62-1.17,9.76,8.6V414l5,1,8.45,9.57h19.15V303.85h-3.92Z" transform="translate(-173.33 -200)"/></g><path class="e" d="M413.07,301.47a3.76,3.76,0,0,0-1.32-.26c-0.27-3.11-.68-6.17-1.21-9.19a6.27,6.27,0,0,0,1.19-.72c1.34-1.08,1.12-7,.48-9.39s-3.35-7.65-5.05-7.92a4,4,0,0,0-1.41.1c-1.06-2.9-2.25-5.74-3.56-8.52a6.19,6.19,0,0,0,1-1.06c1-1.39-.73-7-2-9.2s-5.22-6.53-6.94-6.35a4.39,4.39,0,0,0-1.51.56q-2.65-3.74-5.6-7.24a6.39,6.39,0,0,0,.86-1.46c0.62-1.61-2.54-6.61-4.29-8.37s-6.73-5-8.34-4.34a4.74,4.74,0,0,0-1.43,1c-2.33-1.93-4.74-3.75-7.22-5.48a6.6,6.6,0,0,0,.52-1.81c0.18-1.72-4.16-5.73-6.3-7s-7.78-3-9.18-2a5,5,0,0,0-1.23,1.58c-2.71-1.24-5.48-2.39-8.32-3.41a6.49,6.49,0,0,0,.07-2.1c-0.27-1.7-5.5-4.46-7.9-5.11s-8.3-.92-9.39.42a5.52,5.52,0,0,0-.83,2.08q-4.36-.73-8.84-1.09a6.84,6.84,0,0,0-.5-2.32c-0.7-1.57-6.46-2.88-8.95-2.89s-8.26,1.26-9,2.83a6,6,0,0,0-.26,2.46c-3,.27-5.89.69-8.77,1.2a7,7,0,0,0-1.15-2.32c-1.08-1.34-7-1.11-9.39-.48s-7.65,3.36-7.93,5.06a6.23,6.23,0,0,0,.45,2.63c-2.76,1-5.48,2.16-8.12,3.4a7.16,7.16,0,0,0-1.8-2.1c-1.4-1-7,.74-9.2,2s-6.52,5.22-6.35,6.93a6.57,6.57,0,0,0,1.24,2.6q-3.59,2.54-6.94,5.35a7.33,7.33,0,0,0-2.43-1.7c-1.61-.62-6.61,2.54-8.37,4.28s-4.94,6.73-4.34,8.34a6.74,6.74,0,0,0,2,2.26c-1.87,2.24-3.63,4.56-5.32,7a7.43,7.43,0,0,0-2.89-1.07c-1.71-.18-5.73,4.16-7,6.3s-3,7.78-2,9.18a6.78,6.78,0,0,0,2.55,1.71c-1.23,2.63-2.37,5.32-3.39,8.07a7.38,7.38,0,0,0-3.09-.3c-1.7.27-4.46,5.5-5.11,7.89s-0.92,8.3.42,9.39a6.79,6.79,0,0,0,2.94,1c-0.51,2.86-.9,5.75-1.17,8.68a7.47,7.47,0,0,0-3.1.51c-1.58.7-2.88,6.46-2.89,8.94s1.26,8.26,2.83,9a6.76,6.76,0,0,0,3.06.21q0.36,4.39,1.08,8.69a7.39,7.39,0,0,0-2.8,1.28c-1.33,1.08-1.1,7-.47,9.39s3.35,7.65,5.06,7.92a6.43,6.43,0,0,0,2.88-.54c1,2.76,2.1,5.47,3.31,8.12a7.38,7.38,0,0,0-2.26,1.9c-1,1.39.73,7,2,9.2s5.22,6.52,6.94,6.35a6.35,6.35,0,0,0,2.55-1.2c1.67,2.42,3.42,4.77,5.27,7a7.18,7.18,0,0,0-1.57,2.3c-0.62,1.61,2.53,6.61,4.28,8.37s6.73,5,8.34,4.34a6.08,6.08,0,0,0,2-1.68q3.36,2.87,7,5.46a7,7,0,0,0-.84,2.46c-0.18,1.72,4.16,5.73,6.3,7s7.78,3,9.18,2a5.64,5.64,0,0,0,1.41-1.92q4,1.92,8.18,3.5a6.78,6.78,0,0,0-.11,2.34c0.27,1.7,5.5,4.46,7.89,5.11s8.3,0.93,9.4-.42a5.33,5.33,0,0,0,.81-2c2.92,0.54,5.88,1,8.87,1.28a6.63,6.63,0,0,0,.49,2.07c0.7,1.58,6.46,2.89,8.95,2.89s8.25-1.26,9-2.83a5.09,5.09,0,0,0,.28-1.94q4.55-.34,9-1.06a6.13,6.13,0,0,0,.92,1.66c1.08,1.34,7,1.11,9.39.48s7.65-3.35,7.93-5.05a4.59,4.59,0,0,0-.16-1.7c2.88-1,5.7-2.17,8.46-3.42a6.2,6.2,0,0,0,1.18,1.19c1.39,1,7-.73,9.2-2s6.52-5.22,6.35-6.94a4.49,4.49,0,0,0-.53-1.45c2.53-1.75,5-3.59,7.35-5.54a6,6,0,0,0,1.32.74c1.61,0.62,6.61-2.53,8.37-4.28s5-6.73,4.34-8.34a4.09,4.09,0,0,0-.8-1.17q3-3.52,5.68-7.31a5.86,5.86,0,0,0,1.36.33c1.72,0.18,5.74-4.15,7-6.3s3-7.78,2-9.17a3.85,3.85,0,0,0-1-.87c1.33-2.8,2.54-5.65,3.62-8.58a5.57,5.57,0,0,0,1.29,0c1.7-.27,4.46-5.5,5.11-7.9s0.93-8.3-.41-9.39a3.91,3.91,0,0,0-1.17-.58q0.81-4.55,1.22-9.22a5.93,5.93,0,0,0,1.29-.38c1.58-.7,2.88-6.46,2.89-8.95S414.65,302.17,413.07,301.47Zm-106.77,92a83,83,0,1,1,83.31-82.74A83.12,83.12,0,0,1,306.3,393.43Z" transform="translate(-173.33 -200)"/><path class="f" d="M375.38,337.5a0.74,0.74,0,0,0-.2-0.1l-53.49-19.09-1.6-1.29a15.15,15.15,0,0,0,1.39-5.14l1.55-.29,56.68,9h0A73.7,73.7,0,0,1,375.38,337.5Zm-9.23,16.8L326,321.77l48.61,17.35,0.14,0A73.14,73.14,0,0,1,366.15,354.3ZM336.5,378.2l-18.34-47.75,33.08,38.93,0.06,0.05A73.78,73.78,0,0,1,336.5,378.2Zm-1.68.72a73.21,73.21,0,0,1-17.11,4.77s0-.05,0-0.08l-10-54.89,0.49-3.09a15.15,15.15,0,0,0,4.72-1.37l1.71,2Zm-55.06.57h0l18.65-52.26,2.13-2.63a15.15,15.15,0,0,0,4.73,1.1l0.55,3-8.72,55.18A73.52,73.52,0,0,1,279.76,379.49Zm-16.41-9,31.61-39-16.89,47.31A73.73,73.73,0,0,1,263.35,370.54ZM239.25,341l46.83-18-38.19,32.45A74.13,74.13,0,0,1,239.25,341Zm-0.73-1.67A73.45,73.45,0,0,1,233.63,322l54.67-10,3,0.47a15,15,0,0,0,1.49,4.87l-2.48,2.11ZM249,356.9L291.21,321l3.12-1.2a15.21,15.21,0,0,0,3.6,3.35l-1.11,3.13-34.91,43.13A74.37,74.37,0,0,1,249,356.9Zm57.61,27.62h-0.29a73.82,73.82,0,0,1-7.42-.39l7.91-50,9.1,49.78h0a75.88,75.88,0,0,1-7.58.56m44.38-16.18a0.66,0.66,0,0,0-.08-0.12L316.2,325.32l-1-2.47a15.32,15.32,0,0,0,3.57-3.63l2,0.7,44.27,35.84A74.11,74.11,0,0,1,352.72,368.32Z" transform="translate(-173.33 -200)"/><path class="e" d="M305.77,476.3v-2.12a7.46,7.46,0,0,1-6,2.36c-2.78,0-4.8-.71-6.27-2.17a7.87,7.87,0,0,1-2-5.51c0-3.91,2.68-7.11,8.38-7.11h5.79v-1.22c0-2.69-1.32-3.86-4.57-3.86a5.27,5.27,0,0,0-4.71,2l-3.91-3.81c2.4-2.64,4.76-3.39,8.86-3.39,6.88,0,10.46,2.92,10.46,8.66V476.3h-6Zm-0.14-10.36h-4.85c-2.21,0-3.44,1-3.44,2.78s1.13,2.83,3.53,2.83c1.69,0,2.78-.14,3.86-1.18,0.66-.61.89-1.6,0.89-3.11v-1.32Z" transform="translate(-173.33 -200)"/><path class="e" d="M326,476.3c-5,0-7.11-3.53-7.11-7V457.13h-2.59v-4.66h2.59v-7.25H325v7.25h4.34v4.66H325V468.9a1.92,1.92,0,0,0,2.12,2.22h2.21v5.18H326Z" transform="translate(-173.33 -200)"/><path class="e" d="M341.84,476.3c-5,0-7.16-3.53-7.16-7V442.76h6.12V468.9a1.9,1.9,0,0,0,2.17,2.22h2.36v5.18h-3.49Z" transform="translate(-173.33 -200)"/><path class="e" d="M362.8,476.3v-2.12a7.45,7.45,0,0,1-6,2.36c-2.78,0-4.81-.71-6.27-2.17a7.86,7.86,0,0,1-2-5.51c0-3.91,2.68-7.11,8.38-7.11h5.79v-1.22c0-2.69-1.32-3.86-4.57-3.86a5.27,5.27,0,0,0-4.71,2l-3.91-3.81c2.4-2.64,4.76-3.39,8.86-3.39,6.88,0,10.45,2.92,10.45,8.66V476.3h-6Zm-0.14-10.36h-4.85c-2.21,0-3.44,1-3.44,2.78s1.13,2.83,3.53,2.83c1.7,0,2.78-.14,3.86-1.18,0.66-.61.89-1.6,0.89-3.11v-1.32Z" transform="translate(-173.33 -200)"/><path class="e" d="M389.65,476.3V461.46c0-3.35-2.12-4.48-4.05-4.48s-4.1,1.13-4.1,4.48V476.3h-6.12V451.76h6V454a8.4,8.4,0,0,1,6.12-2.54,8,8,0,0,1,5.79,2.17c2,2,2.5,4.29,2.5,7V476.3h-6.12Z" transform="translate(-173.33 -200)"/><path class="e" d="M410,476.3c-5,0-7.11-3.53-7.11-7V457.13h-2.59v-4.66h2.59v-7.25h6.13v7.25h4.33v4.66h-4.33V468.9a1.92,1.92,0,0,0,2.12,2.22h2.21v5.18H410Z" transform="translate(-173.33 -200)"/><path class="e" d="M431.38,476.3v-2.12a7.46,7.46,0,0,1-6,2.36c-2.78,0-4.81-.71-6.27-2.17a7.88,7.88,0,0,1-2-5.51c0-3.91,2.68-7.11,8.38-7.11h5.79v-1.22c0-2.69-1.32-3.86-4.57-3.86a5.27,5.27,0,0,0-4.71,2L418,454.87c2.4-2.64,4.76-3.39,8.86-3.39,6.87,0,10.46,2.92,10.46,8.66V476.3h-6Zm-0.14-10.36h-4.85c-2.22,0-3.44,1-3.44,2.78s1.13,2.83,3.53,2.83c1.7,0,2.78-.14,3.87-1.18,0.66-.61.89-1.6,0.89-3.11v-1.32Z" transform="translate(-173.33 -200)"/><path class="d" d="M183.32,476.49c-4.3,0-7.48-1.13-10-3.54l1.79-1.79c1.95,2,4.56,3,8.1,3,4.82,0,7.43-1.69,7.43-5,0-2.56-1.49-3.85-4.72-4.15l-4.1-.35c-5-.41-7.43-2.62-7.43-6.46,0-4.25,3.49-7,8.86-7a14.48,14.48,0,0,1,8.66,2.61l-1.74,1.74a11.43,11.43,0,0,0-6.92-2.1c-4,0-6.3,1.74-6.3,4.77,0,2.56,1.54,3.84,5,4.15l4,0.36c4.1,0.36,7.22,1.64,7.22,6.46C193.21,473.67,189.36,476.49,183.32,476.49Z" transform="translate(-173.33 -200)"/><path class="d" d="M213.86,473.78a10,10,0,0,1-13.73,0c-2.61-2.61-3.07-6.41-3.07-9.94s0.46-7.33,3.07-9.94a10,10,0,0,1,13.73,0c2.61,2.61,3.07,6.4,3.07,9.94S216.47,471.16,213.86,473.78Zm-1.74-18.19a7.29,7.29,0,0,0-10.25,0c-2,2-2.2,5.38-2.2,8.25s0.15,6.2,2.2,8.25a7.3,7.3,0,0,0,10.25,0c2.05-2,2.2-5.38,2.2-8.25S214.16,457.63,212.11,455.59Z" transform="translate(-173.33 -200)"/><path class="d" d="M236.76,455.43a5.66,5.66,0,0,0-4.66-1.95c-4.25,0-6.61,3.49-6.61,7.48v15.22h-2.61v-24.7h2.61v3.28a8.46,8.46,0,0,1,7.22-3.59,7.73,7.73,0,0,1,5.94,2.35Z" transform="translate(-173.33 -200)"/><path class="d" d="M257.26,474.34a8.65,8.65,0,0,1-6,2.15,8.19,8.19,0,0,1-7.33-3.49v3.18h-2.61V439.7h2.61v15a8.19,8.19,0,0,1,7.33-3.48,8.64,8.64,0,0,1,6,2.15c2.51,2.51,3.18,6.61,3.18,10.5S259.77,471.83,257.26,474.34Zm-6.41-20.86c-6,0-7,5.23-7,10.35s0.92,10.35,7,10.35,7-5.23,7-10.35S256.9,453.48,250.85,453.48Z" transform="translate(-173.33 -200)"/><path class="d" d="M280.88,476.18v-2.46c-2.1,2.1-4,2.77-7.53,2.77-3.64,0-5.69-.62-7.28-2.25a7.07,7.07,0,0,1-1.79-4.82c0-4.51,3.23-7.12,8.61-7.12h8v-2.77c0-3.94-1.95-6-7-6-3.48,0-5.28.87-6.81,3.13L265.2,455c2.1-2.92,4.71-3.79,8.71-3.79,6.51,0,9.58,2.92,9.58,8.09v16.91h-2.61Zm0-11.79h-7.69c-4.25,0-6.3,1.69-6.3,5s2,4.82,6.46,4.82c2.26,0,4.41-.21,6.15-1.9,0.92-.87,1.38-2.41,1.38-4.71V464.4Z" transform="translate(-173.33 -200)"/><path class="d" d="M324.52,496.67a2.43,2.43,0,0,0-2-.84c-1.82,0-2.83,1.5-2.83,3.21v6.52h-1.12V495h1.12v1.41a3.63,3.63,0,0,1,3.1-1.54,3.31,3.31,0,0,1,2.55,1Z" transform="translate(-173.33 -200)"/><path class="d" d="M327.42,491.31v-1.38h1.38v1.38h-1.38Zm0.13,14.26V495h1.12v10.59h-1.12Z" transform="translate(-173.33 -200)"/><path class="d" d="M339.42,505.57v-1.36a3.51,3.51,0,0,1-3.14,1.5,3.71,3.71,0,0,1-2.59-.92,8.13,8.13,0,0,1,0-9,3.7,3.7,0,0,1,2.59-.92,3.51,3.51,0,0,1,3.14,1.49v-6.42h1.12v15.64h-1.12Zm-3-9.73c-2.59,0-3,2.24-3,4.44s0.39,4.44,3,4.44,3-2.24,3-4.44S339,495.84,336.43,495.84Z" transform="translate(-173.33 -200)"/><path class="d" d="M345.3,500.52c0,2.68,1.21,4.17,3.45,4.17a3.69,3.69,0,0,0,2.92-1.28l0.84,0.66a4.82,4.82,0,0,1-3.83,1.63c-2.92,0-4.5-1.89-4.5-5.43s1.58-5.43,4.24-5.43,4.24,1.93,4.24,5.17v0.5H345.3Zm5.87-2.9a3,3,0,0,0-5.49,0,5,5,0,0,0-.37,2h6.24A4.94,4.94,0,0,0,351.17,497.62Z" transform="translate(-173.33 -200)"/><path class="d" d="M363,505.57a2.47,2.47,0,0,1-2.55-2.77v-7H359V495h1.45v-3.38h1.12V495H364v0.83h-2.4v7a1.51,1.51,0,0,0,1.63,1.76H364v1h-1Z" transform="translate(-173.33 -200)"/><path class="d" d="M373.7,504.54a4.3,4.3,0,0,1-5.89,0,7.56,7.56,0,0,1,0-8.53,4.31,4.31,0,0,1,5.89,0A7.56,7.56,0,0,1,373.7,504.54Zm-0.75-7.8a3.12,3.12,0,0,0-4.39,0c-0.88.88-.95,2.31-0.95,3.54s0.07,2.66.95,3.54a3.13,3.13,0,0,0,4.39,0c0.88-.88.94-2.3,0.94-3.54S373.83,497.62,373,496.74Z" transform="translate(-173.33 -200)"/><path class="d" d="M381.94,510.75a4.55,4.55,0,0,1-3.49-1.41l0.75-.75a3.52,3.52,0,0,0,2.75,1.17c2.22,0,3.21-1.58,3.21-3.67v-1.89a3.51,3.51,0,0,1-3.14,1.5,3.7,3.7,0,0,1-2.59-.92,8.13,8.13,0,0,1,0-9,3.7,3.7,0,0,1,2.59-.92,3.51,3.51,0,0,1,3.14,1.49V495h1.12v11.19C386.27,508.82,384.69,510.75,381.94,510.75Zm0.22-14.92c-2.59,0-3,2.24-3,4.44s0.4,4.44,3,4.44,3-2.24,3-4.44S384.75,495.84,382.16,495.84Z" transform="translate(-173.33 -200)"/><path class="d" d="M391,500.52c0,2.68,1.21,4.17,3.45,4.17a3.68,3.68,0,0,0,2.92-1.28l0.83,0.66a4.79,4.79,0,0,1-3.82,1.63c-2.92,0-4.5-1.89-4.5-5.43s1.58-5.43,4.24-5.43,4.24,1.93,4.24,5.17v0.5H391Zm5.87-2.9a3,3,0,0,0-5.49,0,4.87,4.87,0,0,0-.37,2h6.24A4.94,4.94,0,0,0,396.91,497.62Z" transform="translate(-173.33 -200)"/><path class="d" d="M404.84,505.57a2.47,2.47,0,0,1-2.55-2.77v-7h-1.45V495h1.45v-3.38h1.12V495h2.4v0.83h-2.4v7a1.51,1.51,0,0,0,1.63,1.76h0.77v1h-1Z" transform="translate(-173.33 -200)"/><path class="d" d="M416.2,505.57V499c0-2-1-3.17-2.92-3.17s-3,1.17-3,3.17v6.57h-1.12V489.93h1.12v6.3a3.92,3.92,0,0,1,3.12-1.38,3.64,3.64,0,0,1,3.91,4v6.77H416.2Z" transform="translate(-173.33 -200)"/><path class="d" d="M422,500.52c0,2.68,1.21,4.17,3.45,4.17a3.69,3.69,0,0,0,2.92-1.28l0.83,0.66a4.8,4.8,0,0,1-3.82,1.63c-2.92,0-4.51-1.89-4.51-5.43s1.58-5.43,4.24-5.43,4.24,1.93,4.24,5.17v0.5H422Zm5.87-2.9a3,3,0,0,0-5.49,0,4.91,4.91,0,0,0-.37,2h6.24A5,5,0,0,0,427.82,497.62Z" transform="translate(-173.33 -200)"/><path class="d" d="M438.9,496.67a2.42,2.42,0,0,0-2-.84c-1.83,0-2.84,1.5-2.84,3.21v6.52h-1.12V495h1.12v1.41a3.62,3.62,0,0,1,3.1-1.54,3.32,3.32,0,0,1,2.55,1Z" transform="translate(-173.33 -200)"/><path class="e" d="M187.27,505.57h-1.14l-3-8.83-3,8.83H179L175.62,495h1.23l2.7,9.27,3-9.27h1.1l3,9.27,2.7-9.27h1.23Z" transform="translate(-173.33 -200)"/><path class="e" d="M199.57,504.54a4.3,4.3,0,0,1-5.89,0,7.54,7.54,0,0,1,0-8.53,4.31,4.31,0,0,1,5.89,0A7.55,7.55,0,0,1,199.57,504.54Zm-0.75-7.8a3.12,3.12,0,0,0-4.39,0c-0.88.88-.94,2.31-0.94,3.54s0.07,2.66.94,3.54a3.13,3.13,0,0,0,4.39,0c0.88-.88.95-2.3,0.95-3.54S199.7,497.62,198.82,496.74Z" transform="translate(-173.33 -200)"/><path class="e" d="M210.49,496.67a2.43,2.43,0,0,0-2-.84c-1.82,0-2.84,1.5-2.84,3.21v6.52h-1.12V495h1.12v1.41a3.63,3.63,0,0,1,3.1-1.54,3.31,3.31,0,0,1,2.55,1Z" transform="translate(-173.33 -200)"/><path class="e" d="M220.71,505.57l-3.65-5.82-2.41,2.79v3h-1.12V489.93h1.12v11l5.25-6h1.43l-3.49,4,4.26,6.64h-1.39Z" transform="translate(-173.33 -200)"/><path class="e" d="M233.1,505.57a2.47,2.47,0,0,1-2.55-2.77v-7h-1.45V495h1.45v-3.38h1.12V495h2.4v0.83h-2.4v7a1.51,1.51,0,0,0,1.63,1.76h0.77v1h-1Z" transform="translate(-173.33 -200)"/><path class="e" d="M243.8,504.54a4.3,4.3,0,0,1-5.89,0,7.55,7.55,0,0,1,0-8.53,4.31,4.31,0,0,1,5.89,0A7.55,7.55,0,0,1,243.8,504.54Zm-0.75-7.8a3.12,3.12,0,0,0-4.39,0c-0.88.88-.95,2.31-0.95,3.54s0.07,2.66.95,3.54a3.13,3.13,0,0,0,4.39,0c0.88-.88.94-2.3,0.94-3.54S243.94,497.62,243.06,496.74Z" transform="translate(-173.33 -200)"/><path class="e" d="M252,510.75a4.55,4.55,0,0,1-3.5-1.41l0.75-.75a3.52,3.52,0,0,0,2.75,1.17c2.22,0,3.21-1.58,3.21-3.67v-1.89a3.52,3.52,0,0,1-3.14,1.5,3.7,3.7,0,0,1-2.59-.92,8.13,8.13,0,0,1,0-9,3.7,3.7,0,0,1,2.59-.92,3.52,3.52,0,0,1,3.14,1.49V495h1.12v11.19C256.38,508.82,254.79,510.75,252,510.75Zm0.22-14.92c-2.59,0-3,2.24-3,4.44s0.4,4.44,3,4.44,3-2.24,3-4.44S254.86,495.84,252.27,495.84Z" transform="translate(-173.33 -200)"/><path class="e" d="M261.14,500.52c0,2.68,1.21,4.17,3.45,4.17a3.69,3.69,0,0,0,2.92-1.28l0.84,0.66a4.81,4.81,0,0,1-3.82,1.63c-2.92,0-4.5-1.89-4.5-5.43s1.58-5.43,4.24-5.43,4.24,1.93,4.24,5.17v0.5h-7.36Zm5.87-2.9a3,3,0,0,0-5.5,0,5,5,0,0,0-.37,2h6.24A5,5,0,0,0,267,497.62Z" transform="translate(-173.33 -200)"/><path class="e" d="M274.95,505.57a2.47,2.47,0,0,1-2.55-2.77v-7h-1.45V495h1.45v-3.38h1.12V495h2.39v0.83h-2.39v7a1.51,1.51,0,0,0,1.63,1.76h0.77v1h-1Z" transform="translate(-173.33 -200)"/><path class="e" d="M286.3,505.57V499c0-2-1-3.17-2.92-3.17s-3,1.17-3,3.17v6.57h-1.12V489.93h1.12v6.3a3.93,3.93,0,0,1,3.12-1.38,3.65,3.65,0,0,1,3.91,4v6.77H286.3Z" transform="translate(-173.33 -200)"/><path class="e" d="M292.06,500.52c0,2.68,1.21,4.17,3.45,4.17a3.69,3.69,0,0,0,2.92-1.28l0.83,0.66a4.8,4.8,0,0,1-3.82,1.63c-2.92,0-4.51-1.89-4.51-5.43s1.58-5.43,4.24-5.43,4.24,1.93,4.24,5.17v0.5h-7.36Zm5.86-2.9a3,3,0,0,0-5.49,0,4.91,4.91,0,0,0-.37,2h6.24A4.87,4.87,0,0,0,297.93,497.62Z" transform="translate(-173.33 -200)"/><path class="e" d="M309,496.67a2.43,2.43,0,0,0-2-.84c-1.83,0-2.84,1.5-2.84,3.21v6.52H303V495h1.12v1.41a3.63,3.63,0,0,1,3.1-1.54,3.31,3.31,0,0,1,2.55,1Z" transform="translate(-173.33 -200)"/></svg>